<?xml version="1.0" encoding="UTF-8"?>
<svg width="100px" height="120px" viewBox="0 0 100 120" version="1.1" xmlns="http://www.w3.org/2000/svg" xmlns:xlink="http://www.w3.org/1999/xlink">
    <title>形状结合备份 2</title>
    <defs>
        <linearGradient x1="50%" y1="0%" x2="50%" y2="100%" id="linearGradient-1">
            <stop stop-color="#79F2C2" offset="0%"></stop>
            <stop stop-color="#0CD06B" offset="100%"></stop>
        </linearGradient>
    </defs>
    <g id="页面-1" stroke="none" stroke-width="1" fill="none" fill-rule="evenodd">
        <g id="6.加密资产追踪服务-" transform="translate(-385, -1089)" fill="url(#linearGradient-1)">
            <path d="M425.688695,1089 C426.308655,1089.16642 426.948742,1089.28043 427.545132,1089.5082 C430.366597,1090.58595 432.12902,1092.61981 432.935418,1095.56421 L433.613375,1095.56421 C436.265616,1095.56421 438.917593,1095.55868 441.569569,1095.56579 C443.735588,1095.57158 445.361625,1097.1923 445.371159,1099.34096 L445.372638,1099.88028 L445.37257,1100.97668 C445.372197,1101.34905 445.371689,1101.73029 445.371689,1102.12632 L446.069243,1102.12632 C450.174854,1102.12605 454.28073,1102.12158 458.386341,1102.12684 C461.817968,1102.13132 464.233454,1104.54962 464.232924,1107.95746 L464.232659,1139.00666 C463.370118,1138.26437 462.649524,1137.46126 461.764208,1136.92857 C460.631808,1136.24684 460.427627,1135.36421 460.435042,1134.13689 C460.487213,1125.50459 460.462849,1116.87203 460.462584,1108.2392 C460.462584,1106.55319 459.77271,1105.87383 458.061928,1105.87383 L445.414061,1105.87357 L445.414061,1109.62557 L446.04223,1109.62557 C448.9495,1109.62609 451.857034,1109.62293 454.764304,1109.62872 C455.899352,1109.63109 456.685093,1110.41235 456.685623,1111.5454 C456.68933,1118.77159 456.687741,1125.99805 456.686682,1133.2245 C456.686682,1133.35616 456.671587,1133.48781 456.660464,1133.67056 C455.863335,1133.35589 455.111227,1133.03781 454.344818,1132.75948 C444.426786,1129.15863 433.063594,1131.9174 425.95776,1139.70603 C425.346274,1140.37617 424.769216,1140.61263 423.905881,1140.57971 C422.336517,1140.51994 420.76318,1140.55944 419.191697,1140.56391 C417.954426,1140.5676 417.071493,1141.36387 417.085794,1142.45189 C417.099565,1143.5249 417.963695,1144.30379 419.16495,1144.31327 C420.205984,1144.32144 421.247284,1144.3167 422.288318,1144.31907 C422.326718,1144.31933 422.365118,1144.33276 422.434767,1144.34619 C421.847381,1145.57509 421.263173,1146.79766 420.658574,1148.0629 C420.16679,1148.0629 419.637666,1148.055 419.108807,1148.06448 C417.942244,1148.08554 417.103538,1148.85917 417.087648,1149.91822 C417.072023,1150.96175 417.916821,1151.76881 419.071731,1151.81515 C419.225066,1151.82121 419.378136,1151.83411 419.522466,1151.84307 C419.369926,1153.10488 419.163626,1154.33378 419.08815,1155.57084 C419.013734,1156.79183 419.071996,1158.02099 419.071996,1159.23435 C417.673445,1159.61564 417.019852,1160.30079 417.088707,1161.28032 C417.165242,1162.37466 417.798973,1162.8431 419.567752,1163.12196 C419.926327,1164.33637 420.283049,1165.54447 420.657514,1166.8126 C420.156197,1166.8126 419.672358,1166.80838 419.188784,1166.81365 C417.945422,1166.82655 417.074671,1167.61255 417.087648,1168.70611 C417.100624,1169.7965 417.974818,1170.55906 419.227449,1170.56433 C420.18983,1170.56828 421.152741,1170.55248 422.114857,1170.57486 C422.297852,1170.57907 422.562944,1170.66913 422.645835,1170.80605 C424.31292,1173.55692 426.396578,1175.94493 429.013597,1178.0275 C428.716196,1178.04304 428.532936,1178.06094 428.349676,1178.06094 C425.265502,1178.06305 422.181328,1178.05436 419.097154,1178.06674 C417.667354,1178.07253 416.76244,1179.28536 417.20682,1180.55929 C417.481181,1181.34581 418.211573,1181.8132 419.200172,1181.81399 C423.050755,1181.81715 426.901073,1181.81531 430.751391,1181.81531 C430.869239,1181.81531 430.987881,1181.82452 431.104935,1181.81399 C433.961887,1181.56015 436.65703,1182.25162 439.408317,1182.94467 C445.144732,1184.38975 450.76939,1183.74226 456.184835,1181.35951 C456.324664,1181.29815 456.470054,1181.2497 456.687741,1181.16676 L456.687741,1181.78503 C456.688006,1187.66356 456.688801,1193.54236 456.688801,1199.42116 C456.688801,1200.77724 455.950463,1201.5011 454.57098,1201.5011 C434.651232,1201.50083 414.731483,1201.4903 394.811735,1201.52269 C393.475153,1201.52479 392.544022,1200.64163 392.545611,1199.25237 C392.575272,1170.09299 392.574212,1140.93361 392.546405,1111.77423 C392.545081,1110.55086 393.464825,1109.57001 394.735729,1109.60371 C397.542894,1109.67823 400.353502,1109.62662 403.162786,1109.62636 L403.843391,1109.62636 L403.843391,1105.89964 C403.646095,1105.89069 403.455684,1105.87489 403.265274,1105.87462 C399.218454,1105.87331 395.171634,1105.87252 391.124815,1105.8741 C389.499307,1105.87462 388.793279,1106.57663 388.793279,1108.19391 C388.792749,1139.79477 388.792749,1171.39535 388.793279,1202.99621 C388.793279,1204.52528 389.527644,1205.25283 391.07079,1205.25283 C413.446013,1205.25283 435.821502,1205.25256 458.196725,1205.25151 C459.742784,1205.25151 460.46073,1204.53345 460.46126,1202.98778 L460.462352,1195.45855 L460.462849,1187.1443 C461.442178,1188.12279 462.254932,1189.05071 463.189771,1189.8346 C464.037482,1190.5453 464.274767,1191.34499 464.255964,1192.41853 C464.192141,1196.05019 464.233983,1199.68342 464.230805,1203.31614 C464.228157,1206.52438 461.755733,1208.99797 458.531996,1208.99824 C435.940409,1209.00054 413.349087,1209.00054 390.7575,1208.9985 C387.493509,1208.99824 385.026646,1206.54729 385.026117,1203.29059 C385.021879,1176.53345 385.023468,1149.7763 385.023468,1123.01915 C385.023468,1118.0193 385.090205,1113.0184 385.000958,1108.02013 C384.941372,1104.69418 387.669618,1102.03679 390.925665,1102.10604 C395.009825,1102.19267 399.097428,1102.12684 403.183442,1102.12684 L403.883909,1102.12684 C403.883909,1101.16495 403.880202,1100.25335 403.884704,1099.34175 C403.895297,1097.18914 405.518686,1095.57053 407.68391,1095.56579 C410.550661,1095.55947 413.417412,1095.56421 416.323358,1095.56421 C416.666308,1094.25606 417.217678,1093.06455 418.094785,1092.04104 C419.47056,1090.4356 421.191935,1089.43474 423.297309,1089.10454 L423.388566,1089.07884 L423.566902,1089 L425.688695,1089 Z M460.244578,1140.76872 C468.993664,1148.36987 470.827855,1162.0926 462.698729,1171.93694 C462.756726,1172.01567 462.790889,1172.06202 462.824787,1172.10863 C463.438655,1172.95361 464.056496,1173.18032 465.194458,1172.7785 C467.590082,1171.93273 469.898842,1172.45726 471.731179,1174.23174 C475.558193,1177.93766 479.325885,1181.70466 483.074245,1185.48957 C485.120297,1187.55555 485.546403,1190.49653 484.302512,1193.06597 C483.099403,1195.55089 480.497479,1197.03441 477.655092,1196.794 C475.969734,1196.65155 474.554234,1195.90689 473.359865,1194.71354 C470.173203,1191.52978 466.973565,1188.35866 463.779487,1185.18228 C463.307301,1184.71279 462.827435,1184.2504 462.366636,1183.76985 C460.376992,1181.69545 459.904276,1178.84952 461.107914,1176.24111 C461.156642,1176.13526 461.199544,1176.02677 461.241916,1175.92777 C460.820312,1175.50778 460.407976,1175.09674 459.975779,1174.66622 C454.665735,1178.95459 448.612852,1180.7117 441.848908,1179.65264 C435.976372,1178.73314 431.212402,1175.8306 427.556731,1171.16253 C420.497506,1162.14921 421.639704,1149.13033 430.178517,1141.16843 C438.484548,1133.42378 451.619432,1133.27527 460.244578,1140.76872 Z M418.991753,1185.56993 C418.373912,1185.57125 417.839491,1185.81745 417.471912,1186.33013 C417.03892,1186.93391 416.953116,1187.58746 417.29898,1188.25971 C417.664706,1188.97119 418.282812,1189.30745 419.069083,1189.31139 C421.229276,1189.32193 423.389733,1189.31508 425.549926,1189.31429 C427.729981,1189.31429 429.909771,1189.32509 432.089561,1189.30982 C433.199451,1189.30192 434.041865,1188.48564 434.055261,1187.45923 C434.068348,1186.43782 433.228052,1185.57362 432.130345,1185.56967 C427.750902,1185.55466 423.371195,1185.56019 418.991753,1185.56993 Z M403.988781,1179.00414 C402.794147,1179.01362 402.00867,1179.80752 402.000725,1181.0064 C401.989073,1182.80248 401.986425,1184.59909 402.001255,1186.39517 C402.011053,1187.57403 402.821689,1188.36662 404.016852,1188.37425 C405.823501,1188.3861 407.630415,1188.38768 409.437064,1188.3732 C410.626402,1188.36372 411.413202,1187.55903 411.425119,1186.36936 C411.433859,1185.49068 411.426708,1184.61199 411.427503,1183.7333 C411.427503,1182.83539 411.432535,1181.93696 411.426179,1181.03905 C411.417704,1179.81568 410.62905,1179.01046 409.408992,1179.00283 C407.602343,1178.99177 405.79543,1178.98992 403.988781,1179.00414 Z M445.348066,1138.68711 C434.933219,1138.72065 426.486036,1147.15572 426.512193,1157.49589 C426.538472,1167.80024 435.041533,1176.21267 445.406858,1176.18929 C455.776684,1176.16554 464.264386,1167.71625 464.242975,1157.4377 C464.221219,1147.0941 455.716303,1138.65376 445.348066,1138.68711 Z M445.405639,1145.24686 C448.017892,1145.26477 450.295403,1146.24246 452.377737,1147.71756 C455.647819,1150.03422 458.116006,1153.07262 460.190924,1156.45071 C460.552413,1157.03922 460.614912,1157.69409 460.253688,1158.28971 C457.905468,1162.16177 455.085592,1165.61148 451.114513,1167.95737 C446.907738,1170.44254 442.778292,1170.10208 438.786027,1167.43284 C435.294549,1165.0988 432.712487,1161.92874 430.541701,1158.39819 C430.179947,1157.80995 430.143666,1157.15718 430.507803,1156.55998 C432.938119,1152.571 435.864986,1149.04678 440.018001,1146.70274 C441.750234,1145.72478 443.594224,1145.25055 445.405639,1145.24686 Z M404.075909,1160.25234 C402.776138,1160.25734 402.003638,1161.03807 401.999666,1162.34517 C401.994369,1164.0828 401.99278,1165.82069 401.999136,1167.55831 C402.003903,1168.81749 402.794411,1169.61823 404.047572,1169.62482 C405.834624,1169.63403 407.621941,1169.63535 409.408992,1169.62376 C410.630904,1169.6156 411.416115,1168.8138 411.425384,1167.58859 C411.432005,1166.7099 411.426708,1165.83122 411.427503,1164.95279 C411.427503,1164.07411 411.430946,1163.19542 411.426708,1162.31674 C411.420353,1161.05782 410.634082,1160.25787 409.378273,1160.25207 C407.610818,1160.24365 405.843363,1160.24523 404.075909,1160.25234 Z M445.452514,1153.69089 C443.411493,1153.63638 441.641655,1155.33899 441.606168,1157.39154 C441.571211,1159.40301 443.254186,1161.13168 445.299974,1161.18592 C447.344702,1161.2399 449.109243,1159.54178 449.14579,1157.48449 C449.181541,1155.47249 447.50042,1153.74566 445.452514,1153.69089 Z M404.022943,1141.5029 C402.793352,1141.51027 402.007081,1142.29969 402.00046,1143.53017 C401.990662,1145.30703 401.989073,1147.08389 402.00046,1148.86048 C402.007876,1150.07569 402.812684,1150.86774 404.041481,1150.87433 C405.828533,1150.88407 407.61585,1150.8846 409.402901,1150.87354 C410.627726,1150.8659 411.415586,1150.06726 411.425384,1148.84442 C411.432535,1147.96573 411.426708,1147.08705 411.427768,1146.20862 L411.427768,1144.91995 C411.427768,1144.47074 411.429886,1144.02178 411.426973,1143.57256 C411.419293,1142.31181 410.6362,1141.50817 409.384364,1141.50185 C407.597312,1141.49289 405.81026,1141.4921 404.022943,1141.5029 Z M418.993077,1129.31899 C418.374971,1129.32031 417.840551,1129.56598 417.472706,1130.07839 C417.039185,1130.68165 416.953116,1131.3352 417.29845,1132.00798 C417.663911,1132.71972 418.281487,1133.0565 419.067759,1133.06045 C421.228216,1133.07125 423.388409,1133.0644 425.548602,1133.06361 L429.908633,1133.06708 C430.635279,1133.06642 431.361905,1133.06423 432.088502,1133.05914 C433.20104,1133.05124 434.040806,1132.23838 434.055106,1131.2096 C434.069407,1130.18846 433.228846,1129.32294 432.131404,1129.31899 C427.751962,1129.30398 423.372519,1129.30925 418.993077,1129.31899 Z M404.000963,1122.7532 C402.802091,1122.76163 402.017144,1123.54947 402.000196,1124.74334 C401.987749,1125.62177 401.997812,1126.50072 401.997547,1127.37914 C401.997547,1128.29706 401.986954,1129.21472 401.999931,1130.13237 C402.01688,1131.31493 402.814538,1132.11462 404.00467,1132.12331 C405.811319,1132.13648 407.618233,1132.13595 409.424882,1132.12278 C410.618722,1132.11409 411.417175,1131.31519 411.42406,1130.13079 C411.434653,1128.33445 411.435448,1126.53811 411.424855,1124.74176 C411.417704,1123.56184 410.612631,1122.76057 409.421174,1122.75241 C407.614525,1122.7403 405.807612,1122.7403 404.000963,1122.7532 Z M419.088945,1121.81606 C417.664176,1121.82396 416.760587,1123.04495 417.208939,1124.31572 C417.48992,1125.11225 418.227198,1125.56384 419.266908,1125.56384 C426.612941,1125.56515 433.958974,1125.56436 441.305272,1125.56436 C443.249631,1125.56436 445.194519,1125.57727 447.138878,1125.55989 C448.563382,1125.54725 449.476241,1124.31256 449.017825,1123.05865 C448.726516,1122.26159 448.018898,1121.81316 447.019971,1121.81263 C442.384441,1121.81 437.748912,1121.81132 433.113382,1121.81132 L426.867175,1121.81132 C424.27452,1121.81158 421.6816,1121.8021 419.088945,1121.81606 Z M424.247243,1092.77122 C421.756546,1093.05928 420.025637,1094.89855 419.914145,1097.37504 C419.858796,1098.6042 419.123902,1099.30962 417.88769,1099.31041 L413.143978,1099.3114 L407.687883,1099.3112 L407.687883,1109.58607 L441.576719,1109.58607 L441.576719,1099.31094 L440.862481,1099.31094 C437.680321,1099.31094 434.498162,1099.31357 431.316002,1099.30962 C430.161886,1099.30831 429.405541,1098.57234 429.336686,1097.4385 C429.312322,1097.03246 429.260416,1096.61985 429.152896,1096.22856 C428.547502,1094.02829 426.397107,1092.52238 424.247243,1092.77122 Z" id="形状结合备份-2"></path>
        </g>
    </g>
</svg>