<?xml version="1.0" encoding="UTF-8"?>
<svg width="100px" height="97px" viewBox="0 0 100 97" version="1.1" xmlns="http://www.w3.org/2000/svg" xmlns:xlink="http://www.w3.org/1999/xlink">
    <title>形状结合备份</title>
    <defs>
        <linearGradient x1="50%" y1="0%" x2="50%" y2="100%" id="linearGradient-1">
            <stop stop-color="#79F2C2" offset="0%"></stop>
            <stop stop-color="#0CD06B" offset="100%"></stop>
        </linearGradient>
    </defs>
    <g id="页面-1" stroke="none" stroke-width="1" fill="none" fill-rule="evenodd">
        <g id="6.加密资产追踪服务-" transform="translate(-365, -1764)" fill="url(#linearGradient-1)">
            <path d="M394.080697,1838.9508 C394.107368,1839.32518 394.182676,1839.87508 394.182676,1840.42344 C394.19209,1845.64133 394.201503,1850.85923 394.182676,1856.07713 C394.170125,1859.61579 392.541586,1861.01075 388.5126,1860.99994 C384.813086,1860.99055 383.20965,1859.54433 383.197099,1856.13926 C383.176703,1850.98505 383.189254,1845.8324 383.189254,1840.67819 L383.189254,1838.9508 L394.080697,1838.9508 Z M450.973971,1764.00634 L453.355591,1764.00634 C450.668792,1766.58047 450.427039,1769.41781 450.412807,1772.36381 L450.412298,1772.93532 C450.460934,1792.72729 450.438969,1812.52081 450.435831,1832.31278 C450.435831,1837.57107 447.828286,1840.17303 442.561422,1840.17458 L420.486718,1840.17672 L395.848399,1840.17652 C396.364573,1839.27982 396.563826,1838.37263 397.042347,1838.19088 C401.571819,1836.48058 405.409397,1833.82736 408.787282,1829.86617 C408.722956,1831.9353 409.774132,1832.30812 411.278727,1832.26773 C413.687019,1832.20249 416.09688,1832.23356 418.506741,1832.25841 C419.688138,1832.26929 420.913464,1832.19006 420.960532,1830.72831 C421.007298,1829.28842 419.860257,1829.11958 418.72867,1829.10872 L410.022022,1829.1081 C411.266175,1825.89566 412.993556,1822.6102 413.810963,1819.11658 C417.188848,1804.68543 406.459004,1790.1331 391.60447,1788.76144 C390.208131,1788.63251 389.706077,1788.25037 389.728042,1786.80726 C389.809626,1781.58625 389.729611,1776.36214 389.770403,1771.14114 C389.806488,1766.4949 392.371672,1764.00323 397.059605,1764.00168 C415.031583,1763.99702 433.003562,1764.00323 450.973971,1764.00634 Z M388.788102,1790.05416 C401.82112,1790.07438 412.535275,1800.68416 412.533706,1813.56812 C412.532137,1826.58257 401.949772,1837.11157 388.886944,1837.0945 C375.679776,1837.07584 364.968759,1826.51267 365.000068,1813.53861 C365.031516,1800.67173 375.806858,1790.03399 388.788102,1790.05416 Z M426.244654,1829.105 C425.067964,1829.10344 424.066993,1829.46694 424.088958,1830.77802 C424.110923,1832.01142 425.115032,1832.25841 426.194449,1832.2522 C428.536846,1832.23977 430.880813,1832.24909 433.224779,1832.24599 C435.633071,1832.24599 438.041364,1832.23045 440.451225,1832.2522 C441.637328,1832.26307 442.73871,1831.87628 442.537888,1830.61957 C442.442184,1830.02617 441.226271,1829.1982 440.499861,1829.17801 C435.75074,1829.04752 430.996913,1829.11276 426.244654,1829.105 Z M388.463335,1794.91634 C378.117877,1794.92723 369.684932,1803.23796 369.653475,1813.45472 C369.623744,1823.83149 378.004915,1832.24319 388.375476,1832.24319 C399.04727,1832.24319 407.462956,1824.04586 407.481815,1813.63026 C407.50061,1803.21311 399.056683,1794.90548 388.463335,1794.91634 Z M416.584814,1819.01872 C415.957246,1819.17872 415.238681,1819.98339 415.09434,1820.61718 C415.012756,1820.97446 415.985487,1821.95466 416.53304,1821.99505 C418.732665,1822.15816 420.958963,1822.15505 423.158589,1821.9966 C423.707711,1821.95777 424.675734,1821.02261 424.608271,1820.64824 C424.496877,1820.02067 423.792432,1819.18338 423.182123,1819.02649 C422.146635,1818.7593 420.990341,1818.95192 419.884253,1818.94726 C418.778164,1818.94726 417.62187,1818.75464 416.584814,1819.01872 Z M434.858025,1818.9395 L434.102023,1818.93447 L432.588328,1818.91009 C431.326925,1818.89056 430.067132,1818.88765 428.820821,1819.01095 C428.16815,1819.07619 427.60177,1819.98339 426.994598,1820.50533 C427.595494,1821.02728 428.180702,1821.97951 428.797287,1822.00126 C432.75881,1822.13952 436.728178,1822.15039 440.688132,1821.99815 C441.362767,1821.97175 441.999749,1820.96048 442.653988,1820.40281 C442.004455,1819.91348 441.392577,1819.07309 440.700683,1819.00318 C438.770911,1818.80901 436.808192,1818.93639 434.858025,1818.9395 Z M420.809915,1809.01322 C420.44178,1809.03419 420.096337,1809.42879 419.75233,1809.84622 L419.522972,1810.12404 C419.408166,1810.2608 419.292994,1810.39142 419.17667,1810.50294 C419.769722,1811.01867 420.300017,1811.8544 420.969945,1811.98334 C422.218806,1812.22256 423.54925,1812.05169 424.845178,1812.05013 C426.205431,1812.05013 427.590788,1812.19771 428.918094,1811.98644 C429.553507,1811.88547 430.080664,1811.11032 430.656457,1810.63964 C430.094784,1810.07264 429.56292,1809.05361 428.96673,1809.01633 C426.255637,1808.84079 423.522578,1808.85322 420.809915,1809.01322 Z M437.638151,1808.80351 C436.469306,1808.80351 435.27222,1808.65438 434.144166,1808.86565 C433.540132,1808.97749 432.564264,1809.8008 432.627021,1810.15031 C432.741552,1810.79342 433.466393,1811.78295 433.996688,1811.82178 C436.384584,1811.99887 438.800721,1811.99732 441.187048,1811.80625 C441.503342,1811.78015 441.789137,1811.38217 442.070865,1810.9381 L442.258371,1810.63881 C442.38336,1810.4395 442.508706,1810.24538 442.63673,1810.08507 C442.075057,1809.65788 441.56202,1808.97749 440.93759,1808.85788 C439.873862,1808.65438 438.741102,1808.80196 437.638151,1808.80351 Z M419.832478,1798.7949 C418.731097,1798.7949 417.590492,1798.62403 416.544022,1798.8617 C415.952539,1798.99685 415.150821,1799.78132 415.119443,1800.31414 C415.088064,1800.81123 415.916454,1801.77745 416.423215,1801.81783 C418.611859,1801.99026 420.830311,1802.0089 423.015817,1801.82405 C423.558663,1801.779 424.296056,1800.81278 424.407449,1800.17744 C424.471775,1799.81083 423.528854,1798.98908 422.927957,1798.85083 C421.944245,1798.62558 420.869534,1798.79024 419.832478,1798.7949 Z M428.791011,1798.60694 C428.174426,1798.62869 427.590788,1799.60268 426.993029,1800.13705 C427.60177,1800.64657 428.171288,1801.53045 428.827097,1801.59725 C430.755299,1801.79453 432.716449,1801.66715 434.663479,1801.67181 C436.612077,1801.67181 438.574796,1801.81007 440.499861,1801.60346 C441.260787,1801.52269 441.938561,1800.67453 442.652419,1800.17588 C441.991904,1799.62598 441.348647,1798.62869 440.667736,1798.60383 C436.712488,1798.45315 432.746259,1798.46403 428.791011,1798.60694 Z M438.562245,1771.25143 C436.089627,1771.30114 433.61544,1771.26386 431.141254,1771.26075 C428.668636,1771.26075 426.194449,1771.24366 423.721831,1771.26541 C421.580255,1771.2856 420.974652,1771.81532 420.958963,1773.84873 C420.924447,1778.74662 420.960532,1783.64452 420.94798,1788.54397 C420.943274,1790.30708 421.766957,1791.12884 423.569646,1791.11796 C428.51645,1791.08534 433.464824,1791.07447 438.411629,1791.11796 C440.209611,1791.1335 441.070948,1790.36922 441.069379,1788.59367 C441.061535,1783.63054 441.070948,1778.6674 441.070948,1773.70581 C441.070948,1772.0561 440.310022,1771.2157 438.562245,1771.25143 Z M411.951793,1781.80839 C410.726467,1781.82703 409.333266,1781.89383 409.565466,1783.47986 C409.669015,1784.18821 410.869239,1784.73812 411.92826,1785.67637 C413.021797,1784.74122 414.267519,1784.19132 414.355379,1783.49539 C414.548356,1781.98548 413.214774,1781.78975 411.951793,1781.80839 Z M398.589302,1781.91557 C398.060576,1781.94664 397.114517,1782.94859 397.192963,1783.3385 C397.315339,1783.94588 398.080972,1784.74278 398.697557,1784.87016 C399.877385,1785.11249 401.145073,1784.94006 402.376675,1784.94006 C403.672603,1784.94006 404.992064,1785.08453 406.255045,1784.87792 C406.849666,1784.78006 407.828672,1783.91636 407.759639,1783.5684 C407.634126,1782.92995 406.893595,1781.96062 406.353887,1781.92489 C403.774582,1781.75247 401.171744,1781.76489 398.589302,1781.91557 Z M398.452806,1774.05533 C397.950751,1774.12057 397.22591,1774.95941 397.203946,1775.46893 C397.185119,1775.95826 397.851909,1776.67748 398.390049,1776.92914 C398.987808,1777.2072 399.78325,1777.06894 400.72774,1777.12486 C401.334912,1777.0736 402.248023,1777.18079 402.977571,1776.86855 C403.478057,1776.65418 403.976973,1775.8666 404.003645,1775.31359 C404.024041,1774.89262 403.335285,1774.10504 402.899125,1774.05533 C401.429047,1773.89378 399.915039,1773.86737 398.452806,1774.05533 Z M410.196172,1773.9497 C409.284629,1773.9497 408.319744,1773.7664 407.480371,1774.01028 C406.881044,1774.18582 406.162479,1774.86932 406.038534,1775.44252 C405.949105,1775.84796 406.728859,1776.85302 407.179139,1776.8903 C409.176374,1777.05651 411.203418,1777.06117 413.200654,1776.90117 C413.658778,1776.86389 414.449514,1775.85573 414.364792,1775.44252 C414.245554,1774.87087 413.514438,1774.18582 412.910403,1774.01028 C412.071031,1773.7664 411.106145,1773.94815 410.196172,1773.9497 Z M459.326273,1764.03414 C462.548835,1764.3355 464.900646,1766.91882 464.977523,1770.31302 C465.023022,1772.36196 464.985368,1774.41246 464.985368,1776.6416 L452.248875,1776.6416 C452.248875,1774.12042 451.993141,1771.66759 452.310063,1769.29087 C452.763481,1765.87959 455.893476,1763.71259 459.326273,1764.03414 Z" id="形状结合备份"></path>
        </g>
    </g>
</svg>