<?xml version="1.0" encoding="UTF-8"?>
<svg width="98px" height="100px" viewBox="0 0 98 100" version="1.1" xmlns="http://www.w3.org/2000/svg" xmlns:xlink="http://www.w3.org/1999/xlink">
    <title>形状结合备份</title>
    <defs>
        <linearGradient x1="50%" y1="0%" x2="50%" y2="100%" id="linearGradient-1">
            <stop stop-color="#79F2C2" offset="0%"></stop>
            <stop stop-color="#0CD06B" offset="100%"></stop>
        </linearGradient>
    </defs>
    <g id="页面-1" stroke="none" stroke-width="1" fill="none" fill-rule="evenodd">
        <g id="6.加密资产追踪服务-" transform="translate(-780, -1761)" fill="url(#linearGradient-1)">
            <path d="M843.988368,1837.83115 C848.432364,1842.2949 852.89739,1846.73787 857.354554,1851.18869 C857.417643,1851.25161 857.451448,1851.34412 857.496653,1851.41939 C852.657216,1855.90902 841.100587,1860.30691 832.303594,1861 L832.303594,1841.39521 C833.569124,1841.08944 834.866296,1840.89245 836.077974,1840.45789 C838.370628,1839.63602 840.618274,1838.68772 842.874176,1837.76686 C843.282589,1837.60005 843.577204,1837.41835 843.988368,1837.83115 Z M813.039322,1837.54519 C816.055052,1839.2301 819.308007,1840.26543 822.686356,1840.91971 C823.463873,1841.07025 823.712302,1841.40131 823.706507,1842.21828 C823.685623,1845.13678 823.679996,1848.05543 823.67959,1850.97415 L823.684,1859.73046 L823.684,1860.7997 C814.426707,1859.6201 805.900155,1856.8789 798.331742,1851.21576 C801.508047,1848.04803 804.604948,1844.95969 807.701457,1841.87134 C809.065453,1840.51083 810.444584,1839.16502 811.783227,1837.78021 C812.183385,1837.36643 812.502961,1837.24549 813.039322,1837.54519 Z M877.03622,1820.17763 C877.065702,1820.17783 877.095183,1820.20389 877.188343,1820.24819 C875.237867,1830.02403 870.796623,1838.51148 863.684972,1845.95852 C859.201275,1841.27857 854.779685,1836.66389 850.281051,1831.96845 C850.771618,1831.3716 851.497642,1830.54424 852.162148,1829.67042 C854.244503,1826.93176 855.967385,1823.99846 856.99903,1820.69079 C857.069981,1820.46341 857.413339,1820.16175 857.630714,1820.16116 C864.099085,1820.14548 870.567653,1820.16332 877.03622,1820.17763 Z M811.366382,1804.28577 C811.859897,1804.52981 812.317839,1804.74895 812.769294,1804.98063 C816.653147,1806.97406 820.541717,1808.95847 824.408471,1810.98424 C824.738857,1811.15732 825.139015,1811.60697 825.141766,1811.93117 C825.18756,1817.1768 825.174196,1822.42283 825.174196,1827.86899 C824.443455,1827.50402 823.86641,1827.22255 823.295457,1826.92951 C819.525991,1824.99567 815.751612,1823.07163 812.001014,1821.10192 C811.679079,1820.93276 811.317443,1820.45743 811.314692,1820.12147 C811.272632,1814.97267 811.286979,1809.82327 811.29091,1804.67407 C811.29091,1804.58351 811.324912,1804.49276 811.366382,1804.28577 Z M844.412269,1804.24059 L844.412269,1816.51772 C844.412269,1817.72318 844.446467,1818.93022 844.387504,1820.13255 C844.371978,1820.44793 844.143793,1820.89738 843.881607,1821.03439 C839.609389,1823.2646 835.316337,1825.45502 831.026429,1827.65093 C830.919118,1827.70601 830.792545,1827.72365 830.579101,1827.78715 C830.560233,1827.44472 830.531538,1827.16815 830.531342,1826.89139 C830.52918,1822.00484 830.521908,1817.1183 830.549031,1812.23195 C830.550996,1811.87266 830.704495,1811.31991 830.960785,1811.18525 C835.369206,1808.87017 839.804751,1806.60664 844.412269,1804.24059 Z M782.957357,1799.75928 C786.752177,1803.54993 790.48371,1807.27766 794.196179,1810.98618 C790.505919,1814.66746 786.787358,1818.37676 782.990966,1822.16369 C782.083534,1821.18951 781.136402,1820.17261 780.184159,1819.15002 C782.900557,1816.45527 785.579415,1813.79776 788.278124,1811.12045 C785.448911,1808.32534 782.745486,1805.6545 780,1802.9421 C781.11321,1801.74408 782.060932,1800.72424 782.957357,1799.75928 Z M792.60215,1799.7467 C796.406797,1803.53735 800.144227,1807.26116 803.823284,1810.92695 C800.132827,1814.60999 796.398149,1818.33732 792.591341,1822.1364 C791.708281,1821.18712 790.761934,1820.17002 789.796523,1819.13215 C792.517834,1816.43073 795.19571,1813.77224 797.947288,1811.04083 C795.120238,1808.27237 792.407181,1805.61545 789.651869,1802.91717 C790.757414,1801.72895 791.704939,1800.71087 792.60215,1799.7467 Z M868.340584,1781.60323 C874.805221,1790.54739 877.865566,1800.62939 878,1811.7234 L858.873189,1811.7234 C858.468117,1808.83479 858.216937,1805.98479 857.636354,1803.2034 C857.059899,1800.44142 856.135762,1797.75529 854.32935,1795.57937 C858.988166,1790.93235 863.624968,1786.30709 868.340584,1781.60323 Z M828.371667,1793.04445 C832.557015,1795.15568 836.719563,1797.31121 840.886042,1799.45929 C840.968983,1799.50202 841.032073,1799.58297 841.198543,1799.72841 C836.822551,1802.04996 832.541095,1804.32564 828.249812,1806.5827 C828.056612,1806.68424 827.725636,1806.70717 827.538332,1806.61171 C823.218551,1804.41012 818.909579,1802.18717 814.498406,1799.91619 C814.806975,1799.7192 815.007251,1799.57082 815.225215,1799.45537 C819.225617,1797.3359 823.223464,1795.21134 827.239786,1793.12187 C827.553269,1792.95879 828.076855,1792.89567 828.371667,1793.04445 Z M823.625077,1761 C823.647875,1761.39437 823.681484,1761.70446 823.68168,1762.01475 C823.684825,1767.91761 823.670871,1773.82066 823.700008,1779.72333 C823.70389,1780.50502 823.474329,1780.70377 822.684037,1780.84157 C817.480212,1781.74871 812.771869,1783.79858 808.681058,1787.17761 C808.031292,1787.71449 807.392729,1788.26488 806.583569,1788.94876 C802.034031,1784.2106 797.520852,1779.51007 792.981927,1774.78268 C801.458951,1766.91933 811.582008,1762.02514 823.625077,1761 Z M832.288362,1761.15214 C844.115825,1762.25098 854.213529,1767.08107 862.759538,1774.95952 C858.245377,1779.46581 853.663606,1784.03952 849.226293,1788.46936 C846.706436,1786.86345 844.120935,1785.04466 841.374074,1783.51382 C838.603038,1781.96945 835.556451,1781.07878 832.288362,1780.68558 L832.288362,1761.15214 Z" id="形状结合备份"></path>
        </g>
    </g>
</svg>