<?xml version="1.0" encoding="UTF-8"?>
<svg width="85.0000033px" height="120px" viewBox="0 0 85.0000033 120" version="1.1" xmlns="http://www.w3.org/2000/svg" xmlns:xlink="http://www.w3.org/1999/xlink">
    <title>形状结合备份</title>
    <defs>
        <linearGradient x1="50%" y1="0%" x2="50%" y2="100%" id="linearGradient-1">
            <stop stop-color="#79F2C2" offset="0%"></stop>
            <stop stop-color="#0CD06B" offset="100%"></stop>
        </linearGradient>
    </defs>
    <g id="页面-1" stroke="none" stroke-width="1" fill="none" fill-rule="evenodd">
        <g id="6.加密资产追踪服务-" transform="translate(-1015, -1089)" fill="url(#linearGradient-1)">
            <path d="M1045.0772,1089 C1060.8557,1089.02231 1076.63443,1089.01362 1092.41293,1089.01738 C1096.81141,1089.01855 1099.98311,1092.22266 1099.99075,1096.66915 C1099.99907,1101.66829 1099.99329,1106.66743 1099.99352,1111.66657 C1099.99399,1141.54449 1099.99144,1171.42241 1100,1201.30033 C1100.00092,1204.05157 1098.92889,1206.23021 1096.68674,1207.74282 C1095.87329,1208.29147 1094.89492,1208.58822 1093.99196,1209 L1021.02123,1209 C1020.96017,1208.95305 1020.90604,1208.8852 1020.83758,1208.86219 C1016.70578,1207.47894 1015.02059,1205.12188 1015.02036,1200.71623 C1015.02013,1172.47886 1015.02614,1144.24126 1015,1116.0039 C1014.99885,1114.84039 1015.36313,1114.03725 1016.22169,1113.28224 C1025.06051,1105.50745 1033.87805,1097.7073 1042.68356,1089.89353 C1043.39733,1089.26013 1044.13029,1089 1045.0772,1089 Z M1030.21508,1175.25382 C1027.66624,1175.26156 1026.1108,1176.83005 1026.10225,1179.40662 C1026.0886,1183.50542 1026.08883,1187.60446 1026.10479,1191.70327 C1026.11497,1194.2951 1027.65352,1195.85654 1030.19449,1195.87626 L1032.19459,1195.88394 L1036.1949,1195.87931 L1040.27233,1195.88328 C1040.95188,1195.88286 1041.63141,1195.88104 1042.31095,1195.8765 C1044.86395,1195.85936 1046.41152,1194.3052 1046.42124,1191.72346 C1046.4365,1187.62465 1046.43581,1183.52585 1046.42147,1179.42704 C1046.41245,1176.83404 1044.87921,1175.26837 1042.33153,1175.25734 C1038.29272,1175.23996 1034.2539,1175.24161 1030.21508,1175.25382 Z M1062.58438,1187.43661 C1060.46875,1187.43661 1058.35335,1187.43074 1056.23773,1187.43848 C1054.71883,1187.44412 1053.80176,1188.17683 1053.82489,1189.34362 C1053.84709,1190.4691 1054.74289,1191.18702 1056.18291,1191.18936 C1060.45256,1191.19664 1064.72198,1191.19523 1068.99162,1191.18725 C1070.42887,1191.18467 1071.32883,1190.46558 1071.34779,1189.34221 C1071.36745,1188.17518 1070.44946,1187.44365 1068.93102,1187.43848 C1066.8154,1187.43097 1064.7,1187.43661 1062.58438,1187.43661 Z M1041.38446,1182.01268 C1042.09106,1182.87803 1041.9354,1183.98214 1040.92882,1184.87708 C1039.31371,1186.31291 1037.68472,1187.73255 1036.04463,1189.13905 C1035.00567,1190.02999 1034.26091,1190.02928 1033.15926,1189.18694 C1032.60809,1188.76553 1032.05531,1188.34436 1031.5305,1187.89055 C1030.591,1187.07779 1030.44112,1185.96828 1031.12667,1185.11584 C1031.80135,1184.27701 1032.79359,1184.18451 1033.79647,1184.87426 C1034.01597,1185.02521 1034.22135,1185.19777 1034.5299,1185.43465 C1035.88804,1184.25893 1037.16339,1183.14308 1038.45168,1182.0432 C1039.53089,1181.12174 1040.65474,1181.11915 1041.38446,1182.01268 Z M1055.89171,1179.94823 C1054.65361,1179.95644 1053.80084,1180.78776 1053.82489,1181.84538 C1053.84825,1182.86451 1054.66725,1183.61741 1055.83875,1183.68878 C1056.06888,1183.70286 1056.30041,1183.69324 1056.53124,1183.69324 L1086.19511,1183.693 C1086.34892,1183.693 1086.50296,1183.69606 1086.65677,1183.6923 C1087.99873,1183.6599 1088.8781,1182.9333 1088.89809,1181.84233 C1088.91765,1180.74808 1088.03458,1179.94729 1086.70974,1179.94353 L1081.59264,1179.93578 L1071.35843,1179.93719 L1066.8568,1179.93743 C1063.20169,1179.93813 1059.54659,1179.92405 1055.89171,1179.94823 Z M1036.28025,1150.87838 C1034.31843,1150.87838 1032.35661,1150.87157 1030.39502,1150.88002 C1027.59339,1150.89199 1026.10895,1152.37925 1026.10155,1155.20115 C1026.09091,1159.22178 1026.09114,1163.24288 1026.10109,1167.2635 C1026.10757,1169.92882 1027.63456,1171.49542 1030.24399,1171.50341 C1034.28281,1171.51585 1038.32186,1171.51608 1042.36068,1171.50059 C1044.83828,1171.4912 1046.40759,1169.91614 1046.41846,1167.41751 C1046.4365,1163.27973 1046.43743,1159.14172 1046.42054,1155.00371 C1046.41014,1152.48207 1044.86279,1150.90608 1042.3963,1150.88237 C1040.35792,1150.86265 1038.31908,1150.87838 1036.28025,1150.87838 Z M1056.17805,1163.09873 C1055.5228,1163.10906 1054.70519,1163.4213 1054.27683,1163.88966 C1053.9403,1164.25778 1053.90538,1165.13628 1054.06358,1165.69197 C1054.31639,1166.57939 1055.14603,1166.81815 1056.01522,1166.81792 C1061.13233,1166.81604 1066.2492,1166.81698 1071.36607,1166.82003 C1075.82907,1166.82003 1080.29185,1166.82026 1084.75486,1166.81979 C1085.48574,1166.81979 1086.21847,1166.84961 1086.94727,1166.80829 C1088.0961,1166.74302 1088.92112,1165.91336 1088.89799,1164.9055 C1088.87555,1163.92863 1088.09147,1163.16752 1086.99423,1163.07572 C1086.68846,1163.05013 1086.37899,1163.06469 1086.07137,1163.06469 C1080.3772,1163.06469 1074.68325,1163.06563 1068.98908,1163.06563 C1064.71874,1163.06563 1060.4477,1163.03206 1056.17805,1163.09873 Z M1040.36241,1157.0656 C1041.17748,1157.91405 1041.04472,1159.02779 1039.95626,1160.11382 C1039.63153,1160.4378 1039.22445,1160.6768 1038.80813,1160.98998 C1041.00031,1163.50504 1041.27046,1164.30442 1040.40589,1165.26955 C1039.50501,1166.27506 1038.78754,1166.05837 1036.24379,1163.98725 C1035.9805,1164.16811 1035.72565,1164.4166 1035.46993,1164.67645 L1035.18138,1164.97061 C1034.34386,1165.81709 1033.46003,1166.56069 1032.20937,1165.26979 C1030.95567,1163.97583 1031.75117,1163.07192 1032.70901,1162.07328 L1032.92377,1161.8496 C1033.21163,1161.54876 1033.50148,1161.23645 1033.74422,1160.90006 C1033.33114,1160.61552 1032.83455,1160.36714 1032.45685,1159.99456 C1031.44356,1158.99539 1031.36955,1157.85278 1032.19665,1157.03344 C1033.01357,1156.22443 1034.11429,1156.32961 1035.11879,1157.36 C1035.46573,1157.71591 1035.72848,1158.15633 1036.02985,1158.55826 C1036.198,1158.59488 1036.36638,1158.6315 1036.53476,1158.66813 C1036.80699,1158.24531 1037.02232,1157.76709 1037.36186,1157.41001 C1038.40152,1156.3167 1039.54086,1156.21035 1040.36241,1157.0656 Z M1055.95416,1155.56668 C1054.69617,1155.61505 1053.84709,1156.35104 1053.82489,1157.40914 C1053.80176,1158.50339 1054.68437,1159.31029 1056.00713,1159.31428 C1061.12423,1159.32907 1066.24156,1159.32015 1071.35866,1159.32085 L1075.28299,1159.32085 C1078.97649,1159.32015 1082.67022,1159.32132 1086.36372,1159.31733 C1087.98392,1159.31545 1088.92135,1158.60645 1088.89776,1157.41571 C1088.87417,1156.22661 1087.95617,1155.56997 1086.31076,1155.56481 L1086.19534,1155.56481 C1083.54058,1155.56481 1080.88581,1155.56481 1078.23104,1155.56504 L1056.53124,1155.56527 C1056.33903,1155.56527 1056.14637,1155.55941 1055.95416,1155.56668 Z M1030.07168,1126.51303 C1027.68128,1126.52454 1026.12422,1128.12941 1026.10387,1130.56958 C1026.08675,1132.63835 1026.1004,1134.70759 1026.09831,1136.7766 C1026.09831,1138.8456 1026.08698,1140.91461 1026.10132,1142.98362 C1026.11867,1145.51065 1027.64797,1147.11435 1030.10406,1147.12773 C1034.2199,1147.1505 1038.33597,1147.15309 1042.45181,1147.12444 C1044.86002,1147.10754 1046.40135,1145.52732 1046.41638,1143.06837 C1046.44182,1138.89162 1046.44298,1134.7144 1046.41777,1130.53742 C1046.4032,1128.09795 1044.83134,1126.52289 1042.41943,1126.51139 C1038.30359,1126.49167 1034.18752,1126.49308 1030.07168,1126.51303 Z M1056.12694,1138.697 C1054.69663,1138.70662 1053.80801,1139.45999 1053.82813,1140.59767 C1053.84802,1141.7262 1054.74289,1142.4413 1056.18129,1142.44388 C1060.41162,1142.45069 1064.64218,1142.45022 1068.87251,1142.446 C1070.4069,1142.44459 1071.32397,1141.75132 1071.34802,1140.59908 C1071.37231,1139.43534 1070.45709,1138.70333 1068.9338,1138.69629 C1066.85703,1138.68667 1064.78026,1138.69371 1062.70349,1138.693 C1060.51131,1138.693 1058.31912,1138.68197 1056.12694,1138.697 Z M1041.35403,1133.23147 C1042.10549,1134.09799 1041.93526,1135.24084 1040.87826,1136.17639 C1039.28905,1137.58288 1037.68897,1138.9767 1036.08126,1140.36136 C1035.0127,1141.28164 1034.29916,1141.30324 1033.20006,1140.47193 C1032.61628,1140.03057 1032.03181,1139.58615 1031.48318,1139.10159 C1030.59918,1138.32052 1030.46041,1137.24529 1031.09369,1136.40952 C1031.74385,1135.55167 1032.75066,1135.43335 1033.75401,1136.1015 C1034.00681,1136.26983 1034.25036,1136.45224 1034.55127,1136.66588 C1035.85136,1135.54017 1037.12694,1134.42667 1038.41269,1133.32561 C1039.50415,1132.39123 1040.60094,1132.3633 1041.35403,1133.23147 Z M1056.29925,1131.22998 C1055.58248,1131.23608 1054.71745,1131.60749 1054.21045,1132.11012 C1053.88664,1132.43105 1053.83368,1133.5354 1054.12603,1133.8791 C1054.58422,1134.41742 1055.43283,1134.89188 1056.12393,1134.90315 C1061.20102,1134.98673 1066.27996,1134.94823 1071.35843,1134.94823 C1076.35989,1134.94823 1081.36134,1134.95128 1086.3628,1134.94658 C1087.98786,1134.94518 1088.91534,1134.23688 1088.89406,1133.04004 C1088.87301,1131.85165 1087.9564,1131.19641 1086.30798,1131.19524 C1083.69184,1131.19312 1081.07547,1131.19265 1078.45932,1131.19265 C1071.07256,1131.19242 1063.68556,1131.16894 1056.29925,1131.22998 Z M1042.73005,1095.02672 C1035.7071,1101.20486 1028.89533,1107.19707 1021.85758,1113.38836 L1031.65857,1113.38812 C1034.42575,1113.38789 1037.19315,1113.40761 1039.9601,1113.3785 C1041.82732,1113.35901 1042.51287,1112.68711 1042.69836,1110.80591 C1042.73259,1110.45775 1042.72681,1110.10466 1042.72704,1109.75369 C1042.72936,1105.30742 1042.72936,1100.86093 1042.73005,1096.41443 L1042.73005,1095.02672 Z" id="形状结合备份"></path>
        </g>
    </g>
</svg>