<?xml version="1.0" encoding="UTF-8"?>
<svg width="120px" height="115px" viewBox="0 0 120 115" version="1.1" xmlns="http://www.w3.org/2000/svg" xmlns:xlink="http://www.w3.org/1999/xlink">
    <title>形状结合备份 2</title>
    <defs>
        <linearGradient x1="50%" y1="0%" x2="50%" y2="100%" id="linearGradient-1">
            <stop stop-color="#79F2C2" offset="0%"></stop>
            <stop stop-color="#0CD06B" offset="100%"></stop>
        </linearGradient>
    </defs>
    <g id="页面-1" stroke="none" stroke-width="1" fill="none" fill-rule="evenodd">
        <g id="6.加密资产追踪服务-" transform="translate(-1015, -2556)" fill="url(#linearGradient-1)">
            <path d="M1075.00102,2578.02142 C1063.37908,2578.02142 1051.75715,2578.02142 1040.1374,2578.02142 C1039.5022,2578.02142 1038.7312,2577.79849 1038.25809,2578.07824 C1037.30748,2578.63773 1035.95823,2579.35677 1035.77862,2580.22005 C1035.43474,2581.86575 1036.76646,2582.54326 1038.35227,2582.53889 C1038.80567,2582.53671 1039.26126,2582.54108 1039.71466,2582.54108 C1063.23014,2582.54326 1086.74562,2582.54326 1110.25891,2582.53889 C1111.07372,2582.53889 1112.05718,2582.74433 1112.65952,2582.37061 C1113.38672,2581.92257 1114.22781,2580.94565 1114.21055,2580.21568 C1114.19276,2579.49664 1113.29253,2578.57654 1112.54782,2578.15911 C1111.917,2577.80505 1110.95325,2578.0236 1110.13844,2578.0236 C1098.42451,2578.01923 1086.71277,2578.01923 1075.00102,2578.02142 M1074.83456,2572.63848 L1074.83456,2572.6494 C1086.46088,2572.6494 1098.0872,2572.66689 1109.71352,2572.63192 C1111.5994,2572.62536 1114.29133,2573.27446 1114.24591,2570.25626 C1114.20152,2567.24461 1111.46141,2567.98331 1109.61933,2567.98113 C1086.5463,2567.93742 1063.47546,2567.95053 1040.40462,2567.95709 C1039.49782,2567.95709 1038.45741,2567.75165 1037.72145,2568.121 C1036.88912,2568.53625 1035.71072,2569.58749 1035.80053,2570.19506 C1035.93195,2571.07583 1036.97893,2571.93037 1037.81564,2572.55106 C1038.22961,2572.85921 1039.04661,2572.63629 1039.68181,2572.63629 C1051.40012,2572.63848 1063.11624,2572.63848 1074.83456,2572.63848 M1075.15654,2556.00447 C1090.51958,2556.00884 1105.88261,2556.00447 1121.24565,2556.01102 C1125.28683,2556.01102 1125.76904,2556.50932 1125.76904,2560.55472 C1125.76651,2570.53163 1125.77308,2580.50854 1125.76432,2590.48764 C1125.75994,2594.0107 1125.32844,2594.59423 1121.86552,2594.39535 C1119.69489,2594.27077 1118.57344,2595.12313 1117.5856,2596.88466 C1115.94722,2599.80889 1114.11829,2602.62821 1112.33754,2605.47158 C1110.421,2608.53349 1108.65558,2608.50727 1106.7018,2605.39071 C1104.7743,2602.31787 1102.98261,2599.15323 1100.91274,2596.18311 C1100.32134,2595.33512 1098.99619,2594.60516 1097.96016,2594.53522 C1094.79293,2594.32323 1091.59503,2594.32978 1088.42561,2594.52867 C1087.34139,2594.5986 1085.99872,2595.23459 1085.30876,2596.05853 C1082.62997,2599.25377 1080.18556,2602.6457 1077.6141,2605.93272 C1075.7764,2608.28216 1074.20593,2608.28871 1072.38576,2605.95895 C1069.81649,2602.66755 1067.37426,2599.27562 1064.69767,2596.07602 C1064.00771,2595.25207 1062.67161,2594.60297 1061.58958,2594.53522 C1058.42016,2594.33197 1055.22226,2594.3276 1052.05503,2594.53741 C1051.01681,2594.60516 1049.68289,2595.32201 1049.09588,2596.16562 C1046.97564,2599.21443 1045.14451,2602.45993 1043.14911,2605.59834 C1041.39027,2608.36958 1039.51753,2608.38925 1037.78059,2605.65953 C1035.87938,2602.67629 1033.94969,2599.70617 1032.21713,2596.62677 C1031.30595,2595.01167 1030.26554,2594.34508 1028.35556,2594.41502 C1024.62103,2594.55271 1024.23553,2594.07189 1024.23115,2590.43737 C1024.21631,2580.27906 1024.21144,2570.11857 1024.22239,2559.96026 C1024.22458,2556.69728 1024.91016,2556.01102 1028.25043,2556.00884 C1043.88507,2555.99354 1059.51971,2556.00228 1075.15654,2556.00447 M1074.97474,2670.98916 C1068.62057,2670.98916 1062.26639,2671.00664 1055.91003,2670.98042 C1052.561,2670.9673 1051.93456,2670.32913 1051.92361,2666.99621 C1051.91485,2663.73541 1051.84695,2660.46806 1052.01342,2657.216 C1052.30473,2651.54457 1056.78397,2646.80199 1062.48324,2646.63589 C1070.82624,2646.39111 1079.18895,2646.38237 1087.52976,2646.64244 C1093.34949,2646.82384 1097.77179,2651.66259 1097.9952,2657.51542 C1098.12005,2660.77184 1098.06091,2664.03701 1098.03025,2667.29781 C1098.00396,2670.26794 1097.33591,2670.95856 1094.31105,2670.97823 C1087.86489,2671.01757 1081.42091,2670.98916 1074.97474,2670.98916 M1098.09793,2646.75762 C1099.56108,2646.63305 1100.42626,2646.49536 1101.29144,2646.49317 C1108.2852,2646.47569 1115.27895,2646.45165 1122.2727,2646.49099 C1130.26306,2646.5347 1134.94162,2651.24013 1134.97667,2659.19106 C1134.98762,2662.00164 1134.94162,2664.81003 1134.99857,2667.62061 C1135.04238,2669.7362 1134.07863,2670.95572 1131.9781,2670.96446 C1122.27489,2671.00817 1112.5695,2670.98413 1102.82687,2670.98413 C1102.2092,2662.70756 1104.90112,2654.05289 1098.09793,2646.75762 M1047.18043,2670.99528 C1045.32521,2670.99528 1043.3561,2670.99528 1041.38479,2670.99528 C1034.03183,2670.99528 1026.67667,2671.00839 1019.32151,2670.99091 C1015.66145,2670.98435 1015.04378,2670.35711 1015.03283,2666.74225 C1015.02625,2663.66285 1014.94302,2660.57908 1015.07006,2657.50405 C1015.29567,2652.04462 1019.49674,2646.97858 1024.79079,2646.76221 C1033.57186,2646.4016 1042.37702,2646.66386 1051.86338,2646.66386 C1045.18284,2653.95258 1047.69516,2662.53731 1047.18043,2670.99528 M1075.01241,2644.68592 C1066.99358,2644.72508 1060.35247,2638.25375 1060.27581,2630.32905 C1060.19696,2622.07433 1066.7855,2615.34511 1074.97737,2615.31 C1083.01591,2615.27517 1089.71397,2621.96287 1089.7074,2630.01871 C1089.70302,2638.16415 1083.20647,2644.64641 1075.01241,2644.68592 M1111.67409,2644.68247 C1103.47127,2644.55352 1097.05139,2637.98821 1097.1609,2629.84059 C1097.27042,2621.7323 1104.02981,2615.14732 1112.06616,2615.31998 C1120.17699,2615.49482 1126.78524,2622.25245 1126.64506,2630.23179 C1126.50488,2638.32041 1119.78053,2644.81141 1111.67409,2644.68247 M1038.17266,2644.68946 C1030.03117,2644.69383 1023.40102,2638.1766 1023.32654,2630.09454 C1023.25426,2622.15017 1030.03336,2615.34882 1038.06096,2615.31372 C1046.16302,2615.27889 1052.77565,2621.85075 1052.81747,2629.9809 C1052.85889,2638.12415 1046.32729,2644.68509 1038.17266,2644.68946" id="形状结合备份-2"></path>
        </g>
    </g>
</svg>