<?xml version="1.0" encoding="UTF-8"?>
<svg width="102px" height="120px" viewBox="0 0 102 120" version="1.1" xmlns="http://www.w3.org/2000/svg" xmlns:xlink="http://www.w3.org/1999/xlink">
    <title>形状结合备份 3</title>
    <defs>
        <linearGradient x1="50%" y1="0%" x2="50%" y2="100%" id="linearGradient-1">
            <stop stop-color="#79F2C2" offset="0%"></stop>
            <stop stop-color="#0CD06B" offset="100%"></stop>
        </linearGradient>
    </defs>
    <g id="页面-1" stroke="none" stroke-width="1" fill="none" fill-rule="evenodd">
        <g id="6.加密资产追踪服务-" transform="translate(-385, -2556)" fill="url(#linearGradient-1)">
            <path d="M485.913824,2567.95467 C486.612969,2569.33083 486.975214,2570.78962 486.974538,2572.34186 C486.970145,2582.94719 486.973524,2593.55251 486.973524,2604.15783 C486.973186,2624.70409 486.932299,2645.2507 486.999941,2665.7973 C487.017453,2671.12993 483.132448,2675.32919 478.528699,2675.90654 C478.456385,2675.91568 478.389478,2675.96783 478.320206,2676 L400.202108,2676 C399.118078,2675.64885 398.021207,2675.33257 396.955424,2674.93266 C396.378942,2674.71662 396.10692,2674.19683 396.132602,2673.57174 C396.156256,2673.00488 396.577636,2672.46681 397.119313,2672.31612 C397.357205,2672.24975 397.619426,2672.25348 397.870497,2672.25348 C405.861165,2672.25043 413.852171,2672.25077 421.843177,2672.25077 C438.000566,2672.25111 454.157618,2672.25822 470.315007,2672.24772 C476.56778,2672.24366 481.55709,2668.28279 482.913818,2662.22111 C483.154075,2661.14767 483.219968,2660.016 483.220644,2658.91107 C483.236526,2628.91148 483.233147,2598.91189 483.236188,2568.91263 C483.236188,2568.64241 483.232133,2568.35628 483.314922,2568.10603 C483.503817,2567.53444 483.943444,2567.20767 484.532091,2567.15823 C485.153178,2567.10642 485.633017,2567.40204 485.913824,2567.95467 Z M470.676373,2556.00298 C476.0259,2556.004 480.417101,2560.39492 480.420143,2565.76378 C480.428928,2581.40645 480.423184,2597.04912 480.42386,2612.69179 C480.425086,2628.37375 480.425086,2644.0557 480.422846,2659.73731 C480.42217,2664.48582 476.765258,2668.67559 472.063175,2669.32202 C471.601922,2669.38568 471.13391,2669.4314 470.668939,2669.4314 C445.431783,2669.43599 420.194626,2669.43599 394.95747,2669.43599 C390.1334,2669.43599 386.222376,2666.28864 385.198157,2661.56215 C385.067046,2660.95737 385.008249,2660.32516 385.007911,2659.70582 C384.999773,2634.80622 384.994394,2609.90629 385.009938,2585.00669 C385.011628,2582.29568 386.136884,2580.033 388.038667,2578.12994 C394.009957,2572.15494 399.973475,2566.17216 405.9424,2560.19479 C406.57599,2559.55988 407.195725,2558.90566 407.875947,2558.32424 C409.674667,2556.7869 411.767373,2556.00035 414.140885,2556.00035 C432.986048,2556.00035 451.831211,2555.99858 470.676373,2556.00298 Z M416.236632,2624.69698 C416.079502,2624.77249 415.920344,2624.8453 415.767944,2624.93029 C409.6402,2628.34158 404.185243,2632.61567 399.407806,2637.75596 C398.287619,2638.96146 398.289646,2639.91671 399.408482,2641.12052 C403.481705,2645.50331 408.062814,2649.26744 413.150795,2652.40884 C414.168594,2653.03732 415.214102,2653.62145 416.246769,2654.22589 C409.00492,2646.27029 408.735602,2632.93973 416.287319,2624.71798 C416.270085,2624.71019 416.247783,2624.69156 416.236632,2624.69698 Z M449.043077,2624.63027 C456.859719,2633.39755 456.264989,2646.17344 449.164726,2654.19744 C449.297526,2654.13107 449.433368,2654.06911 449.563127,2653.99732 C455.733787,2650.57859 461.217466,2646.27774 466.026668,2641.11273 C467.135028,2639.92247 467.129621,2638.94521 466.009772,2637.74343 C461.212397,2632.59502 455.744262,2628.30568 449.593202,2624.89304 C449.448912,2624.81313 449.295161,2624.75015 449.043077,2624.63027 Z M437.687117,2632.71421 C436.0337,2634.37177 434.375891,2636.02459 432.722474,2637.68214 C432.035156,2638.37124 431.354934,2639.06745 430.558807,2639.87439 C429.516678,2638.79283 428.571531,2637.75224 427.561842,2636.77904 C426.30142,2635.56372 424.31313,2635.61587 423.077038,2636.83593 C421.836554,2638.06005 421.7416,2640.06334 422.944238,2641.3264 C424.410112,2642.86646 425.902681,2644.38416 427.449316,2645.84193 C429.242967,2647.53301 431.98751,2647.56349 433.754128,2645.8487 C436.707502,2642.98193 439.587211,2640.0393 442.480098,2637.11055 C443.143425,2636.43906 443.405984,2635.57422 443.299541,2634.63589 C443.144776,2633.27091 442.409812,2632.30278 441.113571,2631.86393 C439.821724,2631.42643 438.660311,2631.73898 437.687117,2632.71421 Z M407.987121,2626.34269 L400.927408,2626.34269 L400.927408,2632.11553 C403.30261,2630.17353 405.649428,2628.25455 407.987121,2626.34269 Z M464.491521,2626.33727 L457.897455,2626.33727 C457.998491,2626.59124 458.020793,2626.85536 458.163056,2626.97185 C460.255423,2628.68291 462.363673,2630.37399 464.491521,2632.08844 L464.491521,2626.33727 Z M444.859693,2612.28612 L411.234819,2612.28612 L411.234819,2623.46948 C412.427996,2623.55549 412.417858,2623.53686 413.370778,2623.02114 C414.532866,2622.39164 415.696644,2621.76045 416.890835,2621.19529 C420.890731,2619.30306 425.072087,2618.00885 429.4839,2617.55577 C433.472983,2617.14638 437.410365,2617.52157 441.284556,2618.53642 C442.480098,2618.84965 443.655365,2619.24076 444.859693,2619.60207 L444.859693,2612.28612 Z M455.135678,2612.27461 L447.734671,2612.27461 C447.70899,2612.35622 447.688039,2612.39211 447.688039,2612.42767 C447.684322,2615.10177 447.674522,2617.77621 447.697838,2620.45032 C447.69919,2620.62877 447.916131,2620.87563 448.09624,2620.97112 C449.435058,2621.68121 450.837741,2622.28362 452.124521,2623.07566 C453.129479,2623.69398 454.129368,2623.41462 455.135678,2623.49047 L455.135678,2612.27461 Z M408.363896,2612.29019 L400.949035,2612.29019 L400.949035,2623.46981 L408.363896,2623.46981 L408.363896,2612.29019 Z M464.492197,2612.27563 L458.010994,2612.27563 L458.010994,2623.45525 L464.492197,2623.45525 L464.492197,2612.27563 Z M464.481722,2598.23295 L458.001194,2598.23295 L458.001194,2609.41223 L464.481722,2609.41223 L464.481722,2598.23295 Z M408.346663,2598.21365 L400.934842,2598.21365 L400.934842,2609.40072 L408.346663,2609.40072 L408.346663,2598.21365 Z M444.829281,2598.21636 L411.220965,2598.21636 L411.220965,2609.39767 L444.829281,2609.39767 L444.829281,2598.21636 Z M455.120134,2598.21737 L447.705273,2598.21737 L447.705273,2609.397 L455.120134,2609.397 L455.120134,2598.21737 Z M402.25271,2590.70604 C401.526869,2590.71756 400.969985,2591.24005 400.93518,2591.95387 C400.880438,2593.07573 400.92065,2594.20198 400.92065,2595.34213 L408.366599,2595.34213 L408.366599,2590.69487 C406.293155,2590.69487 404.272425,2590.67388 402.25271,2590.70604 Z M455.120134,2590.71654 L447.705948,2590.71654 L447.705948,2595.33502 L455.120134,2595.33502 L455.120134,2590.71654 Z M444.827929,2590.71722 L411.219951,2590.71722 L411.219951,2595.33434 L444.827929,2595.33434 L444.827929,2590.71722 Z M458.011332,2590.69081 L458.011332,2595.33298 L464.519906,2595.33298 C464.519906,2594.23856 464.541195,2593.18679 464.513148,2592.13673 C464.490508,2591.29728 463.945789,2590.71553 463.123643,2590.70029 C461.434069,2590.66913 459.743482,2590.69081 458.011332,2590.69081 Z M409.325263,2561.01968 C402.881569,2567.47552 396.449363,2573.91985 390.005331,2580.37602 L390.529774,2580.37602 C395.263959,2580.37602 399.998143,2580.37738 404.732327,2580.37568 C407.554591,2580.37467 409.323574,2578.60029 409.324588,2575.76974 L409.325686,2568.65359 L409.325263,2561.01968 Z M458.504687,2571.0043 C457.892724,2571.00566 457.414575,2571.29044 457.165194,2571.86915 C456.745504,2572.84336 457.462221,2573.80302 458.625661,2573.80979 C460.59131,2573.82131 462.55696,2573.81318 464.522272,2573.81216 C466.50752,2573.81216 468.492431,2573.82266 470.477342,2573.80708 C471.353892,2573.80031 471.975993,2573.21111 471.996944,2572.43194 C472.017895,2571.66259 471.387684,2571.00905 470.531746,2571.006 C466.522726,2570.99144 462.513707,2570.9955 458.504687,2571.0043 Z M450.906338,2563.5072 C450.144679,2563.58576 449.576306,2564.16684 449.558059,2564.87828 C449.539135,2565.60192 450.125755,2566.22465 450.909717,2566.30388 C451.083405,2566.32149 451.259797,2566.31337 451.434837,2566.31337 L460.780205,2566.31337 C463.992759,2566.31337 467.205314,2566.31811 470.417531,2566.31032 C471.332604,2566.30829 471.977007,2565.72823 471.998633,2564.93212 C472.020598,2564.12349 471.352541,2563.51871 470.414489,2563.4984 C470.336431,2563.4967 470.258711,2563.49806 470.180653,2563.49806 C463.91166,2563.49806 457.642329,2563.49772 451.372998,2563.4984 C451.217558,2563.4984 451.060427,2563.49128 450.906338,2563.5072 Z" id="形状结合备份-3"></path>
        </g>
    </g>
</svg>