<?xml version="1.0" encoding="UTF-8"?>
<svg width="98px" height="100px" viewBox="0 0 98 100" version="1.1" xmlns="http://www.w3.org/2000/svg" xmlns:xlink="http://www.w3.org/1999/xlink">
    <title>形状结合备份</title>
    <defs>
        <linearGradient x1="50%" y1="0%" x2="50%" y2="100%" id="linearGradient-1">
            <stop stop-color="#79F2C2" offset="0%"></stop>
            <stop stop-color="#0CD06B" offset="100%"></stop>
        </linearGradient>
    </defs>
    <g id="页面-1" stroke="none" stroke-width="1" fill="none" fill-rule="evenodd">
        <g id="6.加密资产追踪服务-" transform="translate(-1195, -1761)" fill="url(#linearGradient-1)">
            <path d="M1208.22872,1836.48739 C1210.28395,1837.39237 1212.24808,1838.15601 1214.09555,1839.14548 C1214.52385,1839.37619 1214.72682,1840.37542 1214.73481,1841.02532 C1214.78915,1845.39427 1214.76198,1849.76322 1214.76198,1854.25729 L1273.69551,1854.25729 C1273.69551,1849.88346 1273.75305,1845.58599 1273.66355,1841.2934 C1273.63319,1839.86849 1274.00236,1839.10811 1275.41033,1838.6743 C1277.02926,1838.1755 1278.5571,1837.3745 1280.28151,1836.63849 L1280.28151,1861 L1208.22872,1861 L1208.22872,1836.48739 Z M1270.3811,1840.67242 L1270.3811,1850.95384 L1218.10548,1850.95384 L1218.10548,1840.68217 C1235.51417,1845.61491 1252.8957,1845.63928 1270.3811,1840.67242 Z M1270.60548,1805.06065 C1278.84237,1807.86984 1286.16352,1812.17543 1291.95842,1818.93602 C1293.28649,1820.48603 1293.39037,1821.54862 1292.00477,1823.16849 C1285.88384,1830.32552 1278.15836,1834.92032 1269.34294,1837.46955 C1250.16349,1843.01807 1231.12148,1842.78736 1212.50299,1834.93656 C1206.24781,1832.29797 1200.77413,1828.40019 1196.41756,1823.03202 C1195.91894,1822.41786 1195.49063,1821.74359 1195,1821.05307 C1198.77963,1815.58091 1203.76907,1811.7595 1209.39298,1808.72609 C1217.17279,1804.52773 1225.5663,1802.38956 1234.26665,1801.52357 C1246.59162,1800.29526 1258.77435,1801.02639 1270.60548,1805.06065 Z M1234.86116,1807.50265 C1228.08179,1812.3639 1225.92588,1821.52425 1229.83017,1828.88112 C1233.77122,1836.30785 1242.38687,1839.57848 1250.09477,1836.57431 C1257.17939,1833.81224 1261.85399,1825.69661 1260.23826,1818.70368 C1255.07462,1819.48194 1249.8934,1820.26182 1244.19279,1821.12131 C1248.32881,1816.97007 1252.07808,1813.20715 1255.81936,1809.45235 C1250.51668,1803.68124 1241.26497,1802.9111 1234.86116,1807.50265 Z M1280.25578,1774.4497 L1280.25578,1805.7034 C1278.17658,1804.76754 1276.21884,1803.98441 1274.37617,1802.98519 C1273.94946,1802.75285 1273.73051,1801.77963 1273.72572,1801.14435 C1273.67778,1795.22213 1273.69695,1789.29829 1273.69695,1783.37445 L1273.69695,1781.08193 L1260.67359,1781.08193 L1260.67359,1774.4497 L1280.25578,1774.4497 Z M1227.72381,1774.33142 L1227.72381,1781.04489 L1214.76278,1781.04489 L1214.76278,1786.87287 C1214.76278,1791.45791 1214.70524,1796.04296 1214.79794,1800.62476 C1214.8299,1802.16827 1214.55022,1803.083 1212.90252,1803.52494 C1211.33953,1803.94412 1209.88841,1804.79224 1208.20075,1805.53313 L1208.20075,1774.46302 C1208.64025,1774.4094 1208.95828,1774.33629 1209.27631,1774.33629 C1215.37007,1774.32817 1221.46384,1774.33142 1227.72381,1774.33142 Z M1227.82705,1784.53647 L1227.82705,1790.89737 L1260.45816,1790.89737 L1260.45816,1784.56085 L1270.36832,1784.56085 L1270.36832,1801.47125 C1252.97081,1796.54176 1235.59088,1796.52226 1218.03835,1801.50375 L1218.03835,1784.53647 L1227.82705,1784.53647 Z M1254.07242,1771.072 C1255.93906,1771.08663 1257.29749,1772.37668 1257.32946,1774.19802 C1257.40457,1778.63522 1257.35343,1783.07404 1257.35343,1787.66721 L1231.09895,1787.66721 C1231.09895,1783.12278 1231.059,1778.7522 1231.11653,1774.38162 C1231.1437,1772.4303 1232.46218,1771.08663 1234.40713,1771.072 C1240.96116,1771.02001 1247.51839,1771.02164 1254.07242,1771.072 Z M1237.73385,1767.66312 C1238.00074,1763.74909 1240.74477,1760.99514 1244.23833,1761.00001 C1247.74469,1761.00651 1250.50949,1763.79946 1250.71406,1767.66312 L1237.73385,1767.66312 Z" id="形状结合备份"></path>
        </g>
    </g>
</svg>