<?xml version="1.0" encoding="UTF-8"?>
<svg width="1079.85662px" height="375.633333px" viewBox="0 0 1079.85662 375.633333" version="1.1" xmlns="http://www.w3.org/2000/svg" xmlns:xlink="http://www.w3.org/1999/xlink">
    <title>编组</title>
    <g id="页面-1" stroke="none" stroke-width="1" fill="none" fill-rule="evenodd">
        <g id="产品-Smart-Contract-Audit" transform="translate(-420, -1645.6381)">
            <g id="编组" transform="translate(420, 1642)">
                <ellipse id="椭圆形备份-8" stroke="#2EDE92" stroke-width="4.55650061" cx="129.864359" cy="78.6738095" rx="72.9063784" ry="72.757464"></ellipse>
                <ellipse id="椭圆形备份-8" fill="#2EDE92" opacity="0.197746" cx="129.408694" cy="78.2190476" rx="54.67973" ry="54.5714286"></ellipse>
                <ellipse id="椭圆形备份-13" fill="#2EDE92" opacity="0.197746" cx="560.467232" cy="78.2190476" rx="54.67973" ry="54.5714286"></ellipse>
                <ellipse id="椭圆形备份-14" fill="#2EDE92" opacity="0.197746" cx="991.52577" cy="78.2190476" rx="54.67973" ry="54.5714286"></ellipse>
                <ellipse id="椭圆形备份-15" fill="#2EDE92" opacity="0.197746" cx="774.629508" cy="303.780952" rx="54.67973" ry="54.5714286"></ellipse>
                <ellipse id="椭圆形备份-16" fill="#2EDE92" opacity="0.197746" cx="342.659641" cy="303.780952" rx="54.67973" ry="54.5714286"></ellipse>
                <ellipse id="椭圆形备份-9" stroke="#2EDE92" stroke-width="4.55650061" cx="560.011568" cy="78.6738095" rx="72.9063784" ry="72.757464"></ellipse>
                <ellipse id="椭圆形备份-11" stroke="#2EDE92" stroke-width="4.55650061" cx="775.085172" cy="304.235714" rx="72.9063784" ry="72.757464"></ellipse>
                <ellipse id="椭圆形备份-12" stroke="#2EDE92" stroke-width="4.55650061" cx="343.115306" cy="304.235714" rx="72.9063784" ry="72.757464"></ellipse>
                <ellipse id="椭圆形备份-10" stroke="#2EDE92" stroke-width="4.55650061" cx="990.158777" cy="78.6738095" rx="72.9063784" ry="72.757464"></ellipse>
                <path d="M183.63276,137.41612 L184.277167,138.05925 L289.079982,242.654489 L289.724389,243.297619 L288.435576,244.58388 L287.791169,243.94075 L182.988353,139.345511 L182.343946,138.702381 L183.63276,137.41612 Z M617.425284,137.41612 L618.069691,138.05925 L722.872507,242.654489 L723.516914,243.297619 L722.2281,244.58388 L721.583693,243.94075 L616.136471,138.702381 L617.425284,137.41612 Z M503.50918,137.41612 L504.797994,138.702381 L398.706364,244.58388 L397.417551,243.297619 L398.061958,242.654489 L502.864773,138.05925 L503.50918,137.41612 Z M937.301705,137.41612 L938.590518,138.702381 L832.498889,244.58388 L831.210075,243.297619 L831.854482,242.654489 L936.657298,138.05925 L937.301705,137.41612 Z" id="形状结合" fill-opacity="0.5" fill="#2EDE92" fill-rule="nonzero"></path>
                <path d="M321.493257,319.990191 C322.735544,320.533441 323.922769,320.991839 325.039475,321.585806 C325.298365,321.7243 325.421049,322.324119 325.425879,322.714245 C325.458723,325.336865 325.442301,327.959486 325.442301,330.657206 L361.064843,330.657206 C361.064843,328.03166 361.099619,325.451953 361.045522,322.875171 C361.027168,322.019821 361.250316,321.563373 362.10137,321.302964 C363.079937,321.003543 364.003441,320.522713 365.045765,320.080895 L365.045765,334.704762 L321.493257,334.704762 L321.493257,319.990191 Z M359.061437,322.502406 L359.061437,328.674197 L327.463288,328.674197 L327.463288,322.508258 C337.986022,325.469313 348.492334,325.483943 359.061437,322.502406 Z M359.197064,301.125169 C364.175874,302.811488 368.60116,305.396071 372.103909,309.454355 C372.906662,310.384805 372.969452,311.022661 372.131923,311.99505 C368.432109,316.29131 363.762422,319.0495 358.433918,320.579769 C346.840845,323.910468 335.33085,323.771973 324.076847,319.059253 C320.295889,317.475342 316.987308,315.135563 314.353968,311.913123 C314.052574,311.544454 313.793683,311.139699 313.497119,310.72519 C315.781729,307.440331 318.797609,305.146391 322.196994,303.325479 C326.899525,300.805266 331.973003,299.521752 337.231956,299.001909 C344.681816,298.264571 352.045701,298.703463 359.197064,301.125169 Z M337.591311,302.591067 C333.493501,305.509208 332.190355,311.008031 334.550315,315.424256 C336.932493,319.882419 342.140246,321.845727 346.799307,320.04237 C351.081624,318.384336 353.9072,313.512639 352.930565,309.314885 C349.809391,309.782061 346.67759,310.250212 343.231836,310.766153 C345.731867,308.274225 347.998124,306.015396 350.259551,303.761444 C347.054333,300.297127 341.462108,299.834828 337.591311,302.591067 Z M365.030212,282.749852 L365.030212,301.511003 C363.773435,300.949222 362.590074,300.479121 361.476266,299.879302 C361.218341,299.739832 361.085998,299.155619 361.0831,298.774271 C361.05412,295.219249 361.065712,291.663252 361.065712,288.107255 L361.065712,286.731086 L353.193706,286.731086 L353.193706,282.749852 L365.030212,282.749852 Z M333.277115,282.678849 L333.277115,286.708849 L325.442784,286.708849 L325.442784,290.207303 C325.442784,292.95964 325.408007,295.711978 325.464036,298.462365 C325.483356,299.388914 325.314305,299.938016 324.318349,300.203302 C323.373593,300.454933 322.496457,300.964047 321.476351,301.40879 L321.476351,282.75785 C321.742004,282.725664 321.93424,282.681775 322.126475,282.681775 C323.599832,282.679825 325.073189,282.678966 326.552975,282.678639 L333.277115,282.678849 Z M333.33952,288.8048 L333.33952,292.623157 L353.063488,292.623157 L353.063488,288.81943 L359.053709,288.81943 L359.053709,298.970504 C348.537737,296.0114 338.032391,295.999696 327.422715,298.99001 L327.422715,288.8048 L333.33952,288.8048 Z M349.203606,280.722271 C350.331905,280.731049 351.153012,281.505448 351.172332,282.598776 C351.217735,285.26236 351.186823,287.92692 351.186823,290.684134 L335.317229,290.684134 C335.317229,287.956179 335.293079,285.332583 335.327856,282.708987 C335.344278,281.537634 336.141235,280.731049 337.316868,280.722271 C341.27847,280.691061 345.242004,280.692036 349.203606,280.722271 Z M339.327712,278.675963 C339.489035,276.32643 341.147672,274.673272 343.259368,274.676194 C345.378791,274.680099 347.049986,276.356665 347.173636,278.675963 L339.327712,278.675963 Z" id="形状结合" fill="#2EDE92"></path>
                <path d="M762.047027,319.654032 C762.06307,319.878692 762.108366,320.20869 762.108366,320.537755 C762.114028,323.669006 762.11969,326.800256 762.108366,329.931506 C762.100817,332.055051 761.121288,332.892164 758.697945,332.885677 C756.472773,332.880046 755.508343,332.01217 755.500793,329.968794 C755.488526,326.875764 755.496075,323.783666 755.496075,320.690636 L755.496075,319.654032 L762.047027,319.654032 Z M796.267025,274.679993 L797.699515,274.679993 C795.979206,276.324389 795.925417,278.147766 795.929191,280.038262 C795.958445,291.915386 795.945234,303.793443 795.943347,315.670567 C795.943347,318.826055 794.374968,320.387485 791.20707,320.388417 L777.929643,320.389699 L763.11026,320.389582 C763.420727,319.851472 763.540573,319.307068 763.828392,319.198001 C766.552765,318.171652 768.860981,316.579459 770.892701,314.202357 C770.85401,315.444043 771.486269,315.667771 772.391247,315.643534 C773.83978,315.604381 775.289256,315.623025 776.738732,315.63794 C777.449315,315.644466 778.186321,315.596924 778.214631,314.719726 C778.243885,313.821088 777.496499,313.747444 776.790634,313.747444 L771.635368,313.747444 C772.383698,311.819661 773.422678,309.848064 773.91433,307.751552 C775.94605,299.09144 769.492295,290.358617 760.557634,289.535487 C759.717768,289.458115 759.415794,289.228794 759.429006,288.362783 C759.478076,285.229668 759.429949,282.094689 759.454485,278.961574 C759.476189,276.173373 761.019088,274.678128 763.838772,274.677196 C774.648505,274.674399 785.458237,274.678128 796.267025,274.679993 Z M758.863653,290.311244 C766.702714,290.32338 773.147032,296.690287 773.146089,304.42193 C773.145145,312.231878 766.780095,318.550311 758.923104,318.540069 C750.979296,318.52887 744.536866,312.189929 744.555698,304.404219 C744.574612,296.682829 751.055733,290.299143 758.863653,290.311244 Z M781.392909,313.74558 C780.685157,313.744648 780.083096,313.962782 780.096308,314.749556 C780.109519,315.489721 780.713467,315.63794 781.362712,315.634212 C782.77161,315.626754 784.181452,315.632347 785.591294,315.630483 C787.039826,315.630483 788.488359,315.621161 789.937835,315.634212 C790.651249,315.640737 791.313705,315.40862 791.192915,314.654472 C791.135351,314.298373 790.404008,313.801512 789.967089,313.789393 C787.110602,313.711089 784.251284,313.750241 781.392909,313.74558 Z M758.668314,293.229032 C752.445758,293.235564 747.373536,298.222819 747.354615,304.35388 C747.336732,310.580957 752.377814,315.628805 758.615468,315.628805 C765.034307,315.628805 770.096149,310.7096 770.107492,304.459218 C770.118797,298.207904 765.039969,293.222513 758.668314,293.229032 Z M775.582737,307.692824 C775.205269,307.78884 774.773069,308.271718 774.686251,308.652055 C774.63718,308.86646 775.222255,309.454676 775.551596,309.478914 C776.87462,309.576794 778.213687,309.57493 779.536712,309.479846 C779.866996,309.456541 780.44924,308.895358 780.408662,308.670699 C780.341662,308.294091 779.917954,307.791637 779.550867,307.697485 C778.928045,307.537147 778.232561,307.652739 777.567274,307.649943 C776.901987,307.649943 776.206503,307.53435 775.582737,307.692824 Z M786.573654,307.645282 C785.361982,307.645282 784.141818,307.569774 782.942414,307.688163 C782.549848,307.727315 782.209183,308.271718 781.843983,308.584936 C782.205408,308.898155 782.557397,309.469592 782.928259,309.482642 C785.311024,309.565608 787.698508,309.572133 790.080329,309.480778 C790.486107,309.464931 790.869237,308.85807 791.262747,308.523411 C791.175929,308.458158 791.09023,308.3825 791.004873,308.303825 L790.749049,308.066131 C790.535422,307.872818 790.319077,307.706807 790.087878,307.683502 C788.927165,307.566977 787.746635,307.643417 786.573654,307.645282 Z M778.124039,301.688542 C777.779599,301.708118 777.468188,302.270233 777.141679,302.582519 C777.498386,302.892008 777.817346,303.39353 778.220293,303.470903 C778.971454,303.614461 779.771685,303.511919 780.551156,303.510987 C781.369317,303.510987 782.202577,303.599546 783.000922,303.472767 C783.383108,303.412174 783.700181,302.947008 784.046507,302.664552 C783.708674,302.3243 783.38877,301.712779 783.030175,301.690406 C781.399515,301.585068 779.755643,301.592525 778.124039,301.688542 Z M786.144284,301.599983 C785.780972,301.667101 785.194009,302.161166 785.231756,302.37091 C785.300644,302.75684 785.736619,303.350649 786.055579,303.373954 C787.491844,303.480225 788.945095,303.479292 790.380416,303.364632 C790.697489,303.338531 790.963604,302.692518 791.252366,302.331758 C790.914533,302.075404 790.605953,301.667101 790.230372,301.595322 C789.590565,301.473204 788.909235,301.561763 788.245836,301.562695 C787.542802,301.562695 786.822782,301.473204 786.144284,301.599983 Z M777.536133,295.556549 C776.873677,295.556549 776.187629,295.454007 775.558202,295.596633 C775.202438,295.677734 774.720223,296.148494 774.70135,296.468237 C774.682477,296.766541 775.180734,297.346367 775.485539,297.370604 C776.801958,297.474078 778.136306,297.485265 779.450838,297.374333 C779.777347,297.347299 780.220872,296.767473 780.287872,296.386204 C780.326563,296.166206 779.759418,295.673073 779.397992,295.590108 C778.806312,295.454939 778.159898,295.553752 777.536133,295.556549 Z M782.924485,295.443753 C782.553622,295.456804 782.202577,296.041291 781.843039,296.361967 C781.916268,296.423119 781.988553,296.493258 782.060499,296.566663 L782.275919,296.790957 C782.491529,297.01361 782.709517,297.214182 782.946189,297.238232 C784.105959,297.356621 785.285545,297.280181 786.456639,297.282978 C787.628676,297.282978 788.809206,297.365943 789.967089,297.241961 C790.424768,297.193487 790.832433,296.684507 791.261803,296.385272 C790.864518,296.055274 790.477614,295.456804 790.068061,295.441888 C787.689071,295.351465 785.303475,295.357991 782.924485,295.443753 Z M788.801657,279.02776 C787.314434,279.057591 785.826268,279.035218 784.338101,279.033354 C782.850878,279.033354 781.362712,279.023099 779.875489,279.03615 C778.58738,279.048269 778.223124,279.366148 778.213687,280.586394 C778.192927,283.525612 778.214631,286.464829 778.207082,289.404979 C778.204251,290.463023 778.699677,290.956155 779.783953,290.94963 C782.759342,290.930054 785.735675,290.923529 788.711065,290.94963 C789.79251,290.958952 790.310584,290.500311 790.309641,289.43481 C790.304922,286.45644 790.310584,283.47807 790.310584,280.500632 C790.310584,279.510638 789.852905,279.00632 788.801657,279.02776 Z M772.796082,285.362972 C772.059076,285.374159 771.221098,285.414243 771.360761,286.366017 C771.423043,286.791098 772.14495,287.121096 772.781927,287.684143 C773.439664,287.122961 774.188938,286.792963 774.241783,286.375339 C774.357854,285.469243 773.555735,285.351786 772.796082,285.362972 Z M764.75885,285.427294 C764.440833,285.445938 763.871801,286.047205 763.918984,286.281187 C763.99259,286.645676 764.453101,287.123893 764.823963,287.200333 C765.229471,287.283432 765.652235,287.285258 766.078345,287.271561 L766.718279,287.24759 C766.824773,287.244394 766.931042,287.242282 767.036868,287.242282 C767.816339,287.242282 768.609964,287.328976 769.369618,287.204994 C769.727269,287.146266 770.316119,286.627964 770.274597,286.419152 C770.199104,286.036019 769.753692,285.454328 769.429069,285.432887 C767.877677,285.329413 766.31213,285.336871 764.75885,285.427294 Z M764.676751,280.710376 C764.374777,280.749529 763.938801,281.252915 763.92559,281.558676 C763.914266,281.852318 764.315325,282.283925 764.639004,282.434941 C764.998542,282.601804 765.476982,282.518839 766.045071,282.552398 C766.410271,282.521635 766.959487,282.585957 767.398293,282.398585 C767.699324,282.269942 767.99941,281.797318 768.015453,281.465456 C768.027721,281.212831 767.61345,280.740207 767.35111,280.710376 C766.466891,280.613428 765.556251,280.59758 764.676751,280.710376 Z M771.740116,280.646987 C771.191844,280.646987 770.611487,280.536988 770.106624,280.683343 C769.746142,280.788681 769.313942,281.198848 769.239392,281.542828 C769.185603,281.786132 769.654606,282.389263 769.92544,282.411636 C771.126731,282.511381 772.345951,282.514178 773.547242,282.418161 C773.822794,282.395789 774.298403,281.790793 774.247445,281.542828 C774.175726,281.19978 773.735976,280.788681 773.372664,280.683343 C772.8678,280.536988 772.287444,280.646055 771.740116,280.646987 Z M801.290743,274.696679 C803.22904,274.877525 804.6436,276.427769 804.68984,278.46462 C804.717206,279.694188 804.694558,280.924688 804.694558,282.262391 L797.033851,282.262391 C797.033851,280.749435 796.880033,279.277496 797.070654,277.851234 C797.343374,275.804129 799.225995,274.503714 801.290743,274.696679 Z" id="形状结合" fill="#2EDE92"></path>
                <path d="M580.606068,104.948209 C580.749311,107.322914 578.964124,109.121932 576.517286,109.130684 C570.817743,109.151105 565.117225,109.139436 559.417682,109.140408 L537.957425,109.140408 C539.8079,108.374124 541.196488,107.20622 542.076414,105.391643 C542.210888,105.114497 542.870589,104.96863 543.288627,104.966685 C548.759825,104.950478 554.230589,104.947669 559.701498,104.947597 L580.606068,104.948209 Z M565.662818,49.7066712 C565.898634,49.9244983 566.187071,50.0839789 566.451146,50.2697154 C568.263618,51.5416701 568.263618,51.5416701 570.116043,50.3231997 C571.319486,49.5306592 572.34363,49.8817109 572.357272,51.1750593 C572.403071,55.2875184 572.373838,59.4009499 572.373838,63.5843973 C568.004415,64.4382018 564.513944,66.5775752 562.098289,70.3039746 C560.27997,73.1075262 559.515029,76.2008656 559.783976,79.5198116 C560.231248,85.0413398 564.021848,91.3262353 572.311473,93.0280096 L572.311473,103.092789 L540.824152,103.092789 C540.730605,103.441896 540.652649,103.699593 540.593208,103.96118 C540.122549,106.013034 538.349055,107.376398 536.270558,107.282071 C534.173547,107.186772 532.544271,105.687265 532.284094,103.587762 C532.224653,103.10932 532.220755,102.622127 532.220755,102.138823 C532.216857,85.4731043 532.217831,68.8073857 532.21978,52.1426396 C532.21978,51.7390759 532.196394,51.3277328 532.266554,50.9358385 C532.437082,49.9915969 533.404708,49.448974 534.046869,50.0927309 C535.91586,51.965655 537.422355,51.0369725 538.936647,49.7008366 C539.850679,48.8937094 540.637058,48.9724772 541.623199,49.6813877 C544.719018,51.9073085 543.916073,51.8411824 546.942707,49.6852775 C547.919104,48.9890087 548.648965,48.9656701 549.640952,49.6813877 C552.685126,51.8752179 551.91239,51.8674383 554.959487,49.6765255 C555.946602,48.9656701 556.674514,48.9890087 557.657732,49.6920846 C560.703855,51.8674383 559.903833,51.8839699 562.976266,49.6745806 C563.963382,48.9646977 564.768275,48.8800952 565.662818,49.7066712 Z M554.410873,96.5715899 C549.323283,96.5715899 544.236667,96.569645 539.150051,96.5735348 L538.938881,96.5737876 C538.300888,96.5776385 537.648135,96.6382022 537.671814,97.5352803 C537.692329,98.3025886 538.240783,98.3947794 538.802186,98.4059241 L539.012312,98.4074647 C539.047099,98.407475 539.081686,98.4074588 539.115945,98.4075612 C541.659253,98.4133959 544.202561,98.4095061 546.745869,98.4085337 C549.410008,98.4085337 552.076097,98.4464589 554.738287,98.3686635 C555.145606,98.3569942 555.538309,97.8085367 555.937832,97.5090244 C555.550002,97.1978428 555.168993,96.8769368 554.767521,96.5832592 C554.68859,96.5249126 554.531704,96.5715899 554.410873,96.5715899 Z M538.88695,90.02219 C538.469886,90.0289971 537.777054,90.4928522 537.707869,90.8429314 C537.543187,91.6724249 538.263304,91.7473029 538.911311,91.745358 C540.770557,91.7414683 542.628828,91.7443856 544.4871,91.7434131 C546.305419,91.7434131 548.123738,91.7385509 549.941082,91.7463305 C550.567652,91.7482754 551.21566,91.6043539 551.062671,90.8769669 C550.987639,90.5152183 550.321117,90.030942 549.914772,90.0231625 C546.239156,89.9570364 542.561591,89.9580088 538.88695,90.02219 Z M587.803922,78.1529465 C587.963731,85.2644181 582.071247,91.2614707 574.812588,91.3771913 C567.682555,91.4909671 561.661444,85.6903479 561.515277,78.5662346 C561.370085,71.4771292 567.132967,65.4129781 574.15581,65.2661393 C581.701931,65.1086036 587.637291,70.7127894 587.803922,78.1529465 Z M574.608928,70.6622224 C574.38578,70.6291594 574.063237,71.1027388 573.824498,71.3818298 C573.521445,71.7387162 573.334351,72.2511934 572.963086,72.4816622 C571.523827,73.3743644 570.853407,74.7357838 571.16718,76.3792115 C571.44782,77.8495445 572.661982,78.9289556 574.289309,79.1594245 C574.608928,79.2051293 575.049378,79.1565071 575.218932,79.3441885 C575.695437,79.8702799 576.405809,80.5179266 576.371704,81.0790259 C576.336623,81.6459598 575.622353,82.3918232 575.026966,82.6534102 C574.219149,83.0073792 573.456157,82.5279651 573.05371,81.6974993 C572.934827,81.4524438 572.997192,81.0965298 572.840306,80.8981516 C572.593771,80.5840527 572.233225,80.3594184 571.920427,80.096859 C571.649531,80.4372138 571.161333,80.7678443 571.145742,81.118896 C571.087275,82.4414177 571.822008,83.3613483 572.893901,84.0965148 C573.288552,84.3678262 573.505854,84.8880829 573.82937,85.2731701 C574.045697,85.5298949 574.272744,85.8683049 574.557282,85.9480452 C574.786278,86.0122264 575.352432,85.7438323 575.352432,85.6232494 C575.352432,84.3561569 576.604597,84.2132079 577.166853,83.4819311 C577.708646,82.7798277 578.042881,81.9192161 578.468715,81.127648 C578.396605,81.0868054 578.325471,81.0469353 578.253362,81.0060927 C578.233873,80.7658994 578.236796,80.5198715 578.190997,80.2845404 C577.870404,78.6372229 576.675731,77.6618631 574.620621,77.4002761 C573.597452,77.2699688 572.968933,76.7351255 572.901696,75.7053089 C572.837383,74.7153625 573.412307,74.1153655 574.335108,73.8761447 C575.307607,73.6242821 576.085216,74.301102 576.50228,75.5020684 C576.635779,75.8871557 577.131773,76.1458253 577.46211,76.4628416 C577.717416,76.0378842 578.20269,75.6032025 578.186125,75.188942 C578.138377,74.0385426 577.460161,73.2002972 576.498382,72.5438985 C576.101782,72.2725871 575.883505,71.7542753 575.5405,71.3896094 C575.26668,71.0969042 574.949985,70.711817 574.608928,70.6622224 Z M538.933723,83.3969397 C538.287665,83.3969397 537.638683,83.450424 537.663044,84.2983938 C537.686431,85.1269148 538.331515,85.1716471 538.976599,85.1697022 C541.558885,85.1638676 544.142145,85.1677574 546.724431,85.1677574 C549.347644,85.1677574 551.970856,85.1658125 554.593095,85.1687298 C555.228434,85.1697022 555.888135,85.1531707 555.92419,84.3168702 C555.961219,83.467928 555.321007,83.3969397 554.67105,83.3979121 C549.4256,83.3988845 544.179174,83.399857 538.933723,83.3969397 Z M553.161631,76.7571027 C548.436535,76.7580751 543.711439,76.7551578 538.985369,76.76002 C538.361723,76.7609924 537.677661,76.7960004 537.666821,77.6381355 C537.656812,78.494101 538.282937,78.5815548 538.925522,78.58863 L546.066679,78.5891842 C548.409251,78.5891842 550.751823,78.584322 553.094394,78.593074 C553.777482,78.5950189 554.512215,78.5590385 554.545347,77.7071789 C554.580427,76.8329532 553.849591,76.7571027 553.161631,76.7571027 Z M544.502691,70.1454665 C542.685346,70.1454665 540.868002,70.1444941 539.050657,70.1454665 C538.377314,70.1464389 537.665966,70.1649153 537.665966,71.0799837 C537.664993,71.9376779 538.353927,71.9551819 538.97465,71.9561543 C542.730171,71.961989 546.485691,71.9610165 550.241212,71.9571268 C550.884347,71.9561543 551.624928,71.8384888 551.470965,71.0459482 C551.398856,70.6764201 550.654378,70.2086753 550.194439,70.1853366 C548.301087,70.0880924 546.400915,70.1444941 544.502691,70.1454665 Z M565.675486,57.1147378 L538.707652,57.1147378 L538.707652,63.6048186 L565.675486,63.6048186 L565.675486,57.1147378 Z" id="形状结合" fill="#2EDE92"></path>
                <path d="M130.320536,60.9962201 C124.495262,60.9962201 118.669987,60.9962201 112.84581,60.9962201 C112.527429,60.9962201 112.140981,60.8851462 111.903842,61.0245331 C111.427368,61.3033069 110.751083,61.6615748 110.661058,62.0917141 C110.488693,62.9117011 111.156195,63.2492787 111.95105,63.2471008 C112.178308,63.2460119 112.406664,63.2481898 112.633922,63.2481898 C124.420607,63.2492787 136.207291,63.2492787 147.992878,63.2471008 C148.401284,63.2471008 148.894225,63.3494631 149.196138,63.1632509 C149.56063,62.9400141 149.98221,62.4532488 149.973562,62.0895361 C149.964644,61.7312682 149.513422,61.272816 149.140147,61.0648246 C148.823962,60.8884131 148.340901,60.9973091 147.932495,60.9973091 C142.06111,60.9951312 136.190823,60.9951312 130.320536,60.9962201 M130.237098,58.3141112 L130.237098,58.319556 C136.064569,58.319556 141.892039,58.3282677 147.719509,58.3108443 C148.664771,58.3075774 150.014048,58.6309986 149.991285,57.1271446 C149.969036,55.6265575 148.595606,55.994626 147.672301,55.9935371 C136.107385,55.9717579 124.543568,55.9782916 112.97975,55.9815585 C112.525234,55.9815585 112.003748,55.8791962 111.634865,56.0632305 C111.217676,56.2701329 110.627024,56.7939228 110.672037,57.0966537 C110.737909,57.5355047 111.262688,57.9612881 111.682073,58.2705528 C111.88957,58.4240962 112.299073,58.3130222 112.617454,58.3130222 C118.491035,58.3141112 124.363518,58.3141112 130.237098,58.3141112 M130.398485,50.0260353 C138.098914,50.0282132 145.799342,50.0260353 153.499771,50.0293022 C155.525333,50.0293022 155.76703,50.2775851 155.76703,52.2932504 C155.765766,57.2643536 155.769059,62.2354568 155.764668,67.207649 C155.762472,68.9630528 155.546193,69.2538052 153.810467,69.1547098 C152.722483,69.0926391 152.160375,69.5173335 151.665238,70.3950354 C150.844035,71.8520642 149.927317,73.2568228 149.034752,74.67356 C148.07412,76.1991932 147.18924,76.1861257 146.209944,74.6332685 C145.243822,73.1021905 144.345768,71.5253761 143.308286,70.0454792 C143.011862,69.6229627 142.347653,69.25925 141.828363,69.2244033 C140.240849,69.1187741 138.637966,69.122041 137.049354,69.2211364 C136.505911,69.2559831 135.832919,69.5728705 135.487091,69.9834085 C134.144402,71.5754683 132.919184,73.2655345 131.63029,74.9033306 C130.709181,76.0739628 129.922011,76.0772297 129.009685,74.9163981 C127.721889,73.2764241 126.497768,71.5863579 125.156177,69.9921202 C124.810349,69.5815822 124.140651,69.258161 123.598306,69.2244033 C122.009694,69.12313 120.40681,69.120952 118.819297,69.2254922 C118.298909,69.25925 117.630308,69.6164289 117.336081,70.0367675 C116.273347,71.555867 115.355531,73.1729729 114.355376,74.7367197 C113.47379,76.1175212 112.535115,76.1273218 111.664507,74.7672106 C110.71156,73.2807799 109.74434,71.800883 108.875929,70.2665381 C108.419217,69.4617966 107.897731,69.1296637 106.940392,69.1645104 C105.068531,69.2331149 104.875307,68.9935437 104.873111,67.1826029 C104.86567,62.121116 104.86323,57.0585401 104.868719,51.9970532 C104.869817,50.3712356 105.213449,50.0293022 106.887694,50.0282132 C114.724258,50.0205905 122.560823,50.0249463 130.398485,50.0260353 M130.307362,107.318408 C127.122454,107.318408 123.937546,107.32712 120.75154,107.314052 C119.072904,107.307519 118.758914,106.989542 118.753425,105.328878 C118.749033,103.704149 118.715,102.076154 118.798437,100.455781 C118.944454,97.6299296 121.189589,95.266886 124.046235,95.184125 C128.228005,95.0621615 132.419655,95.0578056 136.600327,95.1873919 C139.517356,95.2777756 141.733946,97.6887334 141.845929,100.604969 C141.908507,102.227519 141.878865,103.854426 141.863494,105.479155 C141.85032,106.959051 141.515471,107.303163 139.999319,107.312963 C136.768301,107.332565 133.53838,107.318408 130.307362,107.318408 M141.897419,95.2447801 C142.630793,95.1827093 143.06445,95.1141049 143.498106,95.1130159 C147.003591,95.1043042 150.509076,95.0923256 154.01456,95.1119269 C158.019574,95.1337061 160.364615,97.4782374 160.382181,101.439875 C160.38767,102.840277 160.364615,104.239591 160.393159,105.639994 C160.415117,106.694107 159.932056,107.301747 158.879203,107.306103 C154.015658,107.327882 149.151016,107.315904 144.26771,107.315904 C143.958112,103.192011 145.307389,98.8797292 141.897419,95.2447801 M116.375997,107.321457 C115.446105,107.321457 114.459124,107.321457 113.471045,107.321457 C109.78551,107.321457 106.098878,107.327991 102.412245,107.319279 C100.577712,107.316013 100.268114,107.003481 100.262625,105.202341 C100.259331,103.667996 100.217612,102.131473 100.281288,100.599306 C100.394368,97.8790836 102.500075,95.3548739 105.153616,95.2470669 C109.554959,95.0673885 113.968378,95.1980637 118.723234,95.1980637 C115.374744,98.8297459 116.633996,103.107181 116.375997,107.321457 M130.326245,94.2125347 C126.306959,94.2320471 122.978231,91.007636 122.939806,87.0590664 C122.900283,82.9460638 126.202662,79.5931554 130.308679,79.575664 C134.337846,79.5583087 137.695119,82.8905268 137.691827,86.9044341 C137.689629,90.9629886 134.43336,94.1928445 130.326245,94.2125347 M148.702209,94.2108124 C144.590702,94.1465637 141.372858,90.8753273 141.427752,86.8156838 C141.482645,82.7756415 144.870658,79.4946045 148.898727,79.5806324 C152.964123,79.6677492 156.276383,83.0348141 156.20612,87.0106077 C156.135856,91.0408493 152.765409,94.275061 148.702209,94.2108124 M111.861025,94.2142981 C107.780259,94.216475 104.45702,90.9691957 104.419692,86.942221 C104.383463,82.9838507 107.781357,79.5950066 111.805034,79.5775141 C115.866039,79.5601599 119.180495,82.8346632 119.201453,86.885595 C119.222214,90.9430607 115.948378,94.2121191 111.861025,94.2142981" id="形状结合" fill="#2EDE92"></path>
                <path d="M979.707438,71.9453903 C981.5802,73.5639386 983.338934,75.3156647 985.174008,76.9779575 C985.411727,77.1927918 985.809858,77.2540342 986.146144,77.3259697 C987.784085,77.674954 989.426859,78.0044962 991.0677,78.3398711 C991.30252,78.387504 991.541205,78.4759652 991.773126,78.4643 C995.160139,78.2932102 998.546185,78.108511 1001.76989,77.9354771 C1002.60384,76.9235199 1003.31892,75.8707344 1004.21665,75.010425 C1005.40331,73.8730667 1006.71657,72.86597 1008.00469,71.8394313 C1009.5402,70.614584 1011.71543,70.710822 1013.00163,72.2039692 C1015.65326,75.2806691 1018.25077,78.4069461 1020.7961,81.5730792 C1022.0794,83.1692692 1021.7837,85.2826169 1020.2076,86.6649446 C1018.81704,87.8839593 1017.41199,89.0874204 1015.96248,90.2325555 C1015.39138,90.6836104 1015.21454,91.1579957 1015.22227,91.8647132 C1015.25802,95.0911166 1015.24063,98.31752 1015.23676,101.543923 C1015.23386,103.688378 1014.49462,104.42037 1012.32616,104.422315 C1008.95847,104.427175 1005.59078,104.39704 1002.22406,104.45245 C1001.69934,104.460227 1001.16496,104.808239 1000.6644,105.057097 C999.00133,105.887271 997.615602,107.017824 996.313945,108.396264 C995.221984,109.552092 993.595638,109.236159 992.317174,108.329189 C991.31315,107.616639 990.436682,106.722306 989.48194,105.890187 C987.117313,107.137393 986.463102,106.979913 984.524629,104.811155 C984.288843,104.547716 983.758324,104.453422 983.363092,104.447589 C980.877672,104.41551 978.391286,104.437868 975.905866,104.429119 C973.821477,104.422315 973.05807,103.674769 973.049373,101.606138 C973.036811,98.5012471 973.027147,95.3953842 973.05807,92.2904934 C973.065801,91.5468361 972.871567,91.1123069 972.222188,90.6291727 C970.452825,89.31392 968.756903,87.8849314 967.131523,86.3908121 C965.757391,85.1261086 965.631768,83.0292866 966.824228,81.5536372 C969.352166,78.4244439 971.92359,75.3302462 974.537533,72.2729884 C975.89427,70.6865194 978.083025,70.5426485 979.707438,71.9453903 Z M984.237627,81.2036808 C981.904889,84.5136849 979.122804,87.5019236 976.500164,90.6563915 C976.817123,91.1492468 977.13698,91.6459904 977.46167,92.1495388 C979.664919,90.4716923 980.82549,90.6388937 982.88089,92.8416747 C985.20783,92.4295039 986.573265,93.402577 987.080592,95.7871409 C987.134707,96.0457198 987.414945,96.2556936 987.591784,96.4870537 C988.18125,97.2589019 988.772649,98.028806 989.360182,98.8025984 C989.585338,99.0981171 989.744784,99.4820971 990.031786,99.6872104 C991.498686,100.739996 991.894885,101.850135 991.381759,103.55034 C991.30252,103.812807 991.2629,104.23956 991.409783,104.39218 C992.129705,105.142642 992.847693,105.942681 993.717397,106.478308 C994.101033,106.714529 995.017121,106.558993 995.378531,106.231395 C995.906151,105.753121 995.523481,105.176665 995.000693,104.717833 C994.370641,104.164708 993.716431,103.579503 993.292208,102.873758 C993.084446,102.529634 993.200406,101.672241 993.487409,101.433104 C993.772478,101.196883 994.537817,101.295066 994.944645,101.519621 C995.446174,101.797642 995.74284,102.431452 996.22311,102.774603 C996.820306,103.201356 997.488045,103.585336 998.182842,103.786561 C998.457282,103.866273 998.887302,103.405497 999.245813,103.190663 C999.053512,102.881534 998.906629,102.525745 998.65828,102.270083 C997.962517,101.556561 997.140164,100.952886 996.529439,100.176177 C996.020179,99.5307021 996.444401,98.539159 997.195245,98.5245775 C997.628164,98.5158286 998.09104,98.8784223 998.500767,99.1379733 C999.398494,99.7076245 1000.22665,100.415314 1001.17945,100.854704 C1001.47129,100.988854 1002.07718,100.43184 1002.53812,100.191731 C1002.3178,99.8485792 1002.14966,99.4519619 1001.86652,99.1749131 C1001.24033,98.5605453 1000.51655,98.0443596 999.905821,97.4154102 C999.343413,96.8350659 999.13855,96.1098785 999.903889,95.5392552 C1000.59289,95.0250137 1001.09248,95.4449614 1001.66069,95.9621191 C1002.38061,96.6173152 1003.21553,97.2180737 1004.10456,97.5894163 C1004.92208,97.9306238 1005.62364,97.3425026 1005.86716,96.5648218 C1005.95026,96.2994382 1005.47772,95.7229823 1005.12791,95.4780128 C1002.01727,93.2917575 999.21489,90.7866531 996.855094,87.7809166 C996.596116,87.4513743 996.02791,87.2588983 995.579529,87.2054328 C993.84592,86.9993473 992.454394,87.85188 991.006821,88.6781659 C990.195097,89.1428302 989.111833,89.4218232 988.19188,89.3362783 C986.552972,89.1836584 985.416559,88.1133752 984.934357,86.50552 C984.398039,84.7168541 985.094769,83.2499536 986.377098,82.052325 C987.102818,81.3757427 987.939666,80.8197009 988.815167,80.1411744 C988.562953,80.0109128 988.463421,79.9350889 988.351325,79.9059259 C986.715316,79.474313 985.477438,79.4461221 984.237627,81.2036808 Z M988.447959,101.373806 C987.773456,102.122324 987.138572,102.792101 986.571332,103.515344 C986.516251,103.586308 986.9598,104.228867 987.041938,104.20262 C987.570525,104.03153 988.155159,103.844887 988.538795,103.472572 C988.893441,103.12942 989.058684,102.560741 989.212332,102.062053 C989.243255,101.959011 988.848989,101.724734 988.447959,101.373806 Z M985.455212,98.8123194 C984.838689,99.2147693 984.348756,99.8398303 983.87815,100.429896 C983.721603,100.62626 983.679084,101.050096 983.781516,101.281456 C983.888779,101.523509 984.233762,101.658631 984.576812,101.918182 C985.302531,101.244516 986.018587,100.672921 986.607087,99.9905059 C986.848671,99.7105408 986.814849,99.1914388 986.906651,98.7812122 C986.808085,98.7806289 986.704725,98.7725411 986.599665,98.7617702 L986.282474,98.7262302 C985.966366,98.6922844 985.662782,98.6775862 985.455212,98.8123194 Z M983.355361,95.3001183 C982.397721,96.2022281 981.503859,97.1753012 980.636088,98.1658722 C980.479541,98.3437667 980.443787,98.7734354 980.546219,98.9970186 C980.657347,99.241016 980.994599,99.3809986 981.210092,99.5481999 C981.459407,99.4490456 981.643978,99.4305757 981.741578,99.3285051 C982.707915,98.3194642 983.69068,97.3230606 984.585509,96.2527773 C984.736257,96.0719665 984.610634,95.3983005 984.399972,95.2427643 C984.174815,95.075563 983.563124,95.104726 983.355361,95.3001183 Z M980.106535,93.3666093 C979.212673,93.3529999 977.746739,95.0590372 977.858834,95.7570058 C977.983492,96.5220493 978.665726,96.7864608 979.26099,96.2537494 C979.737394,95.8279692 980.195438,95.3594165 980.559747,94.8383703 C980.72789,94.5992334 980.753981,94.1549833 980.658314,93.8662692 C980.575209,93.6203277 980.225395,93.4657636 980.106535,93.3666093 Z M987.850763,83.7778044 C986.855435,84.6050624 986.78296,85.6656247 987.414945,86.4510823 C988.081717,87.2783403 988.895373,87.3201407 990.0888,86.6455026 C990.250339,86.5542871 990.411342,86.4563749 990.572322,86.3557264 L991.05571,86.0495326 C991.70151,85.6408901 992.355183,85.2518337 993.049658,85.1358296 C995.053841,84.803371 997.116005,84.783929 999.155944,84.7469892 C999.552142,84.7392124 1000.1764,85.1717973 1000.29622,85.5353631 C1000.40928,85.8794869 1000.02371,86.4112262 999.80339,86.832146 C999.728015,86.9760169 999.490296,87.034343 999.264173,87.169465 C999.771501,87.7361999 1000.19089,88.2796044 1000.68372,88.7432966 C1001.88198,89.871906 1003.07348,91.0121805 1004.34131,92.0581613 C1006.8248,94.1092945 1007.47901,94.0091681 1009.49865,91.4525423 C1009.67259,91.2318754 1009.81271,90.9801012 1010.00405,90.7769321 C1010.522,90.2286671 1010.41861,89.7931658 1009.9364,89.2351798 C1007.88584,86.8642253 1005.83913,84.4874382 1003.88423,82.0377435 C1003.07637,81.0257863 1002.25209,80.4230837 1000.89438,80.4639119 C999.217789,80.5154333 997.528631,80.4386373 995.857834,80.2801848 C992.529768,79.9661962 990.170939,81.8511001 987.850763,83.7778044 Z M1006.79967,49.1143093 C1007.75151,49.1114169 1008.4666,49.3748563 1009.1585,50.0339408 C1011.63233,52.392258 1014.17379,54.6796118 1016.64278,57.0427894 C1017.03415,57.4170483 1017.40329,58.0459977 1017.40909,58.5612113 C1017.46417,63.5228151 1017.44001,68.4844189 1017.43325,73.4469948 C1017.43325,73.5510096 1017.3714,73.6559966 1017.28443,73.9320733 C1016.44469,72.9327534 1015.69481,72.0131458 1014.91497,71.120757 C1012.4798,68.3298548 1009.09762,68.0450292 1006.29331,70.485975 C1004.36257,72.1657656 1002.54972,73.9806783 1000.6586,75.7071298 C1000.45953,75.8889127 1000.08749,75.9326572 999.791794,75.9443225 C997.232932,76.0434768 994.66634,76.2699763 992.11521,76.1533242 C990.301394,76.0706956 988.505939,75.5282632 986.709518,75.1559485 C986.512385,75.1151202 986.372267,74.8302946 986.191561,74.6757306 C984.329429,73.0824569 982.533974,71.39975 980.583906,69.9250727 C978.260831,68.1684861 975.027466,68.581629 973.042609,70.7270561 C972.361341,71.4639087 971.737087,72.2532547 970.939859,73.1903601 C970.894441,72.6848676 970.838393,72.3543532 970.837427,72.0238389 C970.832595,66.0930503 970.824865,60.1632338 970.83936,54.2324453 C970.84709,50.8680035 972.61742,49.1328031 976.000568,49.131831 C986.266936,49.1308589 996.53427,49.141552 1006.79967,49.1143093 Z M982.905048,57.3101172 C982.660565,57.3490013 982.41898,57.6017475 982.241174,57.8156098 C981.94161,58.1752872 981.760905,58.6623098 981.410124,58.943247 C980.592603,59.6003873 980.368412,60.424729 980.478575,61.4094674 C980.591636,62.4194804 981.198496,62.9978805 982.11555,63.2778456 C982.495321,63.3935257 982.952399,63.3313112 983.280953,63.5169825 C983.641397,63.7211237 984.139061,64.1245457 984.129397,64.4278412 C984.119734,64.7632161 983.660724,65.2492666 983.295448,65.3766118 C982.398687,65.6906005 981.689396,65.3659187 981.190766,64.4813067 C981.062243,64.252863 980.537521,64.2509188 980.195438,64.1439877 C980.147121,64.4667252 979.95482,64.8701472 980.078511,65.0966467 C980.359715,65.608944 980.725957,66.1358228 981.191732,66.4663371 C981.668136,66.8065725 982.103954,67.0126579 982.049839,67.7290964 C982.035344,67.9332376 982.451836,68.292915 982.721444,68.3531853 C982.903115,68.3940135 983.384351,68.0148941 983.36889,67.86033 C983.284819,67.0107137 983.861722,66.821154 984.43476,66.5091096 C985.32379,66.023059 985.713224,65.2035778 985.626254,64.1818996 C985.537351,63.1436957 984.955616,62.4748902 983.997976,62.1540968 C983.54573,62.002449 983.012311,62.040361 982.607416,61.8206661 C982.28176,61.6437437 981.841111,61.1411675 981.903923,60.9049469 C982.000556,60.5374927 982.488557,60.0183908 982.800684,60.0251955 C983.283852,60.0349165 983.80954,60.3693193 984.218301,60.6930289 C984.436693,60.8650908 984.447322,61.3015642 984.550721,61.6194412 C984.787473,61.5057054 985.02326,61.3919696 985.260012,61.2772616 C985.362444,60.8991143 985.633985,60.4606968 985.526721,60.1574012 C985.377905,59.7364815 984.999101,59.3369479 984.619331,59.0725364 C984.10234,58.711887 983.478086,58.5252435 983.510942,57.6979855 C983.51674,57.5657798 983.092517,57.2809542 982.905048,57.3101172 Z M989.793101,64.7758504 C989.018098,64.7748813 988.340696,65.013046 988.462454,65.8646066 C988.529132,66.3273267 989.126328,66.7122787 989.741885,67.436494 C989.887282,67.2657781 990.032524,67.1127153 990.170831,66.9722164 L990.436188,66.7064624 C990.772309,66.3704385 991.026965,66.0996307 991.071565,65.7975316 C991.180761,65.0480417 990.527517,64.7758504 989.793101,64.7758504 Z M1003.85234,64.7807139 C1003.1015,64.7729371 1002.35645,64.9187522 1002.47628,65.8296109 C1002.53812,66.2991357 1003.11889,66.6996414 1003.6987,67.4219125 C1004.34518,66.7258881 1004.96363,66.3613502 1005.0622,65.8869649 C1005.22164,65.1160887 1004.60609,64.7894628 1003.85234,64.7807139 Z M994.491433,64.7807139 C993.728027,64.7700208 992.998442,64.9576363 993.123099,65.8480808 C993.18881,66.3166335 993.797603,66.7083903 994.405429,67.4209404 C995.024851,66.7190834 995.618182,66.3448245 995.712884,65.8704392 C995.873296,65.0723442 995.236479,64.7904349 994.491433,64.7807139 Z M999.081536,64.2489746 C998.456315,64.9974924 997.833994,65.4086912 997.774081,65.8908533 C997.680346,66.6422874 998.359682,66.9212804 999.074771,66.9193463 C999.839144,66.9183641 1000.52428,66.6345106 1000.40252,65.7975316 C1000.33584,65.3425883 999.722217,64.9683294 999.081536,64.2489746 Z M989.773774,59.8171659 C989.069314,59.8171659 988.443128,60.0281118 988.425733,60.8553698 C988.407373,61.751647 989.02293,61.963565 989.80663,61.9577324 C992.089118,61.9402346 994.371607,61.9518998 996.654096,61.9518998 C998.977171,61.9518998 1001.29928,61.9421788 1003.62235,61.9567603 C1004.36837,61.9616208 1005.06026,61.8459408 1005.09505,60.9448031 C1005.12887,60.049498 1004.4621,59.8191101 1003.70836,59.818138 C999.063175,59.8132775 994.418958,59.8132775 989.773774,59.8171659 Z M1009.01742,53.0046816 C1008.71302,56.4867476 1009.6436,57.3256708 1012.96104,56.6811678 C1011.64199,55.45146 1010.38575,54.2810503 1009.01742,53.0046816 Z" id="形状结合" fill="#2EDE92"></path>
                <ellipse id="椭圆形" stroke-opacity="0.5" stroke="#2EDE92" stroke-width="4.55650061" cx="341.748312" cy="136.428571" rx="25.0616147" ry="25.007464"></ellipse>
                <text id="02" fill-rule="nonzero" font-family="NexaBold, Nexa Bold" font-size="21.8712029" font-weight="bold" line-spacing="29.1616039" fill="#2EDE92">
                    <tspan x="327.312457" y="142.812359">02</tspan>
                </text>
                <ellipse id="椭圆形" stroke-opacity="0.5" stroke="#2EDE92" stroke-width="4.55650061" cx="772.80685" cy="136.428571" rx="25.0616147" ry="25.007464"></ellipse>
                <text id="04" fill-rule="nonzero" font-family="NexaBold, Nexa Bold" font-size="21.8712029" font-weight="bold" line-spacing="29.1616039" fill="#2EDE92">
                    <tspan x="757.769537" y="142.812359">04</tspan>
                </text>
                <ellipse id="椭圆形" stroke-opacity="0.5" stroke="#2EDE92" stroke-width="4.55650061" cx="123.029392" cy="245.571429" rx="25.0616147" ry="25.007464"></ellipse>
                <text id="01" fill-rule="nonzero" font-family="NexaBold, Nexa Bold" font-size="21.8712029" font-weight="bold" line-spacing="29.1616039" fill="#2EDE92">
                    <tspan x="111.382116" y="251.955216">01</tspan>
                </text>
                <rect id="矩形" fill="#000000" fill-rule="nonzero" opacity="0" transform="translate(123.0294, 207.3714) rotate(-90) translate(-123.0294, -207.3714)" x="115.738762" y="200.095238" width="14.5812613" height="14.552381"></rect>
                <path d="M119.154644,200.31062 L120.973244,200.31062 L120.973244,202.125546 L119.154644,202.125546 L119.154644,200.31062 L119.154644,200.31062 Z M120.97323,202.125546 L122.791929,202.125546 L122.791929,203.940458 L120.97323,203.940458 L120.97323,202.125546 L120.97323,202.125546 Z M122.791929,203.940458 L124.610485,203.940458 L124.610485,205.755385 L122.791929,205.755385 L122.791929,203.940458 Z M124.610485,205.755385 L126.429071,205.755385 L126.429071,207.570396 L124.610485,207.570396 L124.610485,205.755356 L124.610485,205.755385 Z M122.791929,207.570368 L124.610485,207.570368 L124.610485,209.385166 L122.791929,209.385166 L122.791929,207.570368 L122.791929,207.570368 Z M120.97323,209.38518 L122.791929,209.38518 L122.791929,211.20022 L120.97323,211.20022 L120.97323,209.38518 Z M119.154644,211.313627 L119.154644,213.128496 L120.97323,213.128496 L120.97323,211.200235 L119.154644,211.200235 L119.154644,211.313627 Z" id="形状" fill="#8A96A3" fill-rule="nonzero" transform="translate(122.7919, 206.7196) rotate(-90) translate(-122.7919, -206.7196)"></path>
                <rect id="矩形" fill="#000000" fill-rule="nonzero" opacity="0" transform="translate(341.7483, 174.6286) scale(1, -1) rotate(-90) translate(-341.7483, -174.6286)" x="334.457682" y="167.352381" width="14.5812613" height="14.552381"></rect>
                <path d="M337.873564,168.871504 L339.692164,168.871504 L339.692164,170.68643 L337.873564,170.68643 L337.873564,168.871504 L337.873564,168.871504 Z M339.69215,170.68643 L341.510849,170.68643 L341.510849,172.501342 L339.69215,172.501342 L339.69215,170.68643 L339.69215,170.68643 Z M341.510849,172.501342 L343.329405,172.501342 L343.329405,174.316269 L341.510849,174.316269 L341.510849,172.501342 Z M343.329405,174.316269 L345.14799,174.316269 L345.14799,176.13128 L343.329405,176.13128 L343.329405,174.31624 L343.329405,174.316269 Z M341.510849,176.131252 L343.329405,176.131252 L343.329405,177.94605 L341.510849,177.94605 L341.510849,176.131252 L341.510849,176.131252 Z M339.69215,177.946065 L341.510849,177.946065 L341.510849,179.761105 L339.69215,179.761105 L339.69215,177.946065 Z M337.873564,179.874511 L337.873564,181.68938 L339.69215,181.68938 L339.69215,179.761119 L337.873564,179.761119 L337.873564,179.874511 Z" id="形状" fill="#8A96A3" fill-rule="nonzero" transform="translate(341.5108, 175.2804) scale(1, -1) rotate(-90) translate(-341.5108, -175.2804)"></path>
                <rect id="矩形" fill="#000000" fill-rule="nonzero" opacity="0" transform="translate(561.3786, 207.3714) rotate(-90) translate(-561.3786, -207.3714)" x="554.08793" y="200.095238" width="14.5812613" height="14.552381"></rect>
                <path d="M557.503813,200.31062 L559.322412,200.31062 L559.322412,202.125546 L557.503813,202.125546 L557.503813,200.31062 L557.503813,200.31062 Z M559.322398,202.125546 L561.141097,202.125546 L561.141097,203.940458 L559.322398,203.940458 L559.322398,202.125546 L559.322398,202.125546 Z M561.141097,203.940458 L562.959654,203.940458 L562.959654,205.755385 L561.141097,205.755385 L561.141097,203.940458 Z M562.959654,205.755385 L564.778239,205.755385 L564.778239,207.570396 L562.959654,207.570396 L562.959654,205.755356 L562.959654,205.755385 Z M561.141097,207.570368 L562.959654,207.570368 L562.959654,209.385166 L561.141097,209.385166 L561.141097,207.570368 L561.141097,207.570368 Z M559.322398,209.38518 L561.141097,209.38518 L561.141097,211.20022 L559.322398,211.20022 L559.322398,209.38518 Z M557.503813,211.313627 L557.503813,213.128496 L559.322398,213.128496 L559.322398,211.200235 L557.503813,211.200235 L557.503813,211.313627 Z" id="形状" fill="#8A96A3" fill-rule="nonzero" transform="translate(561.141, 206.7196) rotate(-90) translate(-561.141, -206.7196)"></path>
                <rect id="矩形" fill="#000000" fill-rule="nonzero" opacity="0" transform="translate(772.8069, 174.6286) scale(1, -1) rotate(-90) translate(-772.8069, -174.6286)" x="765.51622" y="167.352381" width="14.5812613" height="14.552381"></rect>
                <path d="M768.932102,168.871504 L770.750702,168.871504 L770.750702,170.68643 L768.932102,170.68643 L768.932102,168.871504 L768.932102,168.871504 Z M770.750687,170.68643 L772.569387,170.68643 L772.569387,172.501342 L770.750687,172.501342 L770.750687,170.68643 L770.750687,170.68643 Z M772.569387,172.501342 L774.387943,172.501342 L774.387943,174.316269 L772.569387,174.316269 L772.569387,172.501342 Z M774.387943,174.316269 L776.206528,174.316269 L776.206528,176.13128 L774.387943,176.13128 L774.387943,174.31624 L774.387943,174.316269 Z M772.569387,176.131252 L774.387943,176.131252 L774.387943,177.94605 L772.569387,177.94605 L772.569387,176.131252 L772.569387,176.131252 Z M770.750687,177.946065 L772.569387,177.946065 L772.569387,179.761105 L770.750687,179.761105 L770.750687,177.946065 Z M768.932102,179.874511 L768.932102,181.68938 L770.750687,181.68938 L770.750687,179.761119 L768.932102,179.761119 L768.932102,179.874511 Z" id="形状" fill="#8A96A3" fill-rule="nonzero" transform="translate(772.5693, 175.2804) scale(1, -1) rotate(-90) translate(-772.5693, -175.2804)"></path>
                <rect id="矩形" fill="#000000" fill-rule="nonzero" opacity="0" transform="translate(997.9051, 207.3714) rotate(-90) translate(-997.9051, -207.3714)" x="990.614441" y="200.095238" width="14.5812613" height="14.552381"></rect>
                <path d="M994.030324,200.31062 L995.848923,200.31062 L995.848923,202.125546 L994.030324,202.125546 L994.030324,200.31062 L994.030324,200.31062 Z M995.848909,202.125546 L997.667608,202.125546 L997.667608,203.940458 L995.848909,203.940458 L995.848909,202.125546 L995.848909,202.125546 Z M997.667608,203.940458 L999.486165,203.940458 L999.486165,205.755385 L997.667608,205.755385 L997.667608,203.940458 Z M999.486165,205.755385 L1001.30475,205.755385 L1001.30475,207.570396 L999.486165,207.570396 L999.486165,205.755356 L999.486165,205.755385 Z M997.667608,207.570368 L999.486165,207.570368 L999.486165,209.385166 L997.667608,209.385166 L997.667608,207.570368 L997.667608,207.570368 Z M995.848909,209.38518 L997.667608,209.38518 L997.667608,211.20022 L995.848909,211.20022 L995.848909,209.38518 Z M994.030324,211.313627 L994.030324,213.128496 L995.848909,213.128496 L995.848909,211.200235 L994.030324,211.200235 L994.030324,211.313627 Z" id="形状" fill="#8A96A3" fill-rule="nonzero" transform="translate(997.6675, 206.7196) rotate(-90) translate(-997.6675, -206.7196)"></path>
                <ellipse id="椭圆形" stroke-opacity="0.5" stroke="#2EDE92" stroke-width="4.55650061" cx="561.378561" cy="245.571429" rx="25.0616147" ry="25.007464"></ellipse>
                <text id="03" fill-rule="nonzero" font-family="NexaBold, Nexa Bold" font-size="21.8712029" font-weight="bold" line-spacing="29.1616039" fill="#2EDE92">
                    <tspan x="546.505282" y="251.955216">03</tspan>
                </text>
                <ellipse id="椭圆形" stroke-opacity="0.5" stroke="#2EDE92" stroke-width="4.55650061" cx="997.905072" cy="245.571429" rx="25.0616147" ry="25.007464"></ellipse>
                <text id="05" fill-rule="nonzero" font-family="NexaBold, Nexa Bold" font-size="21.8712029" font-weight="bold" line-spacing="29.1616039" fill="#2EDE92">
                    <tspan x="983.305183" y="251.955216">05</tspan>
                </text>
                <text id="Project-Evaluation" fill-rule="nonzero" font-family="BaiJamjuree-Bold, Bai Jamjuree" font-size="21.8712029" font-weight="bold" line-spacing="29.1616039" fill="#FFFFFF">
                    <tspan x="247.873633" y="84.8797084">Project Evaluation</tspan>
                </text>
                <text id="Requirement-Discussi" fill-rule="nonzero" font-family="BaiJamjuree-Bold, Bai Jamjuree" font-size="21.8712029" font-weight="bold" line-spacing="29.1616039" fill="#FFFFFF">
                    <tspan x="0" y="307.236938">Requirement Discussion</tspan>
                </text>
                <text id="Project-Quotation" fill-rule="nonzero" font-family="BaiJamjuree-Bold, Bai Jamjuree" font-size="21.8712029" font-weight="bold" line-spacing="29.1616039" fill="#FFFFFF">
                    <tspan x="470.230863" y="307.236938">Project Quotation</tspan>
                </text>
                <text id="Report-Delivery" fill-rule="nonzero" font-family="BaiJamjuree-Bold, Bai Jamjuree" font-size="21.8712029" font-weight="bold" line-spacing="29.1616039" fill="#FFFFFF">
                    <tspan x="915.856622" y="307.236938">Report Delivery</tspan>
                </text>
                <text id="Smart-Contract-Audit" fill-rule="nonzero" font-family="BaiJamjuree-Bold, Bai Jamjuree" font-size="21.8712029" font-weight="bold" line-spacing="29.1616039" fill="#FFFFFF">
                    <tspan x="660.692588" y="84.8797084">Smart Contract Audit</tspan>
                </text>
            </g>
        </g>
    </g>
</svg>