<?xml version="1.0" standalone="no"?><!DOCTYPE svg PUBLIC "-//W3C//DTD SVG 1.1//EN" "http://www.w3.org/Graphics/SVG/1.1/DTD/svg11.dtd"><svg t="1730707248262" class="icon" viewBox="0 0 1024 1024" version="1.1" xmlns="http://www.w3.org/2000/svg" p-id="24512" xmlns:xlink="http://www.w3.org/1999/xlink" width="200" height="200"><path d="M796.672 226.304c8.704 8.704 14.08 20.864 13.76 34.432l-0.128 0.384-8.32 392.512a51.84 51.84 0 0 1-50.112 50.176 46.72 46.72 0 0 1-48.064-48.064l5.76-274.56-479.36 479.488a48 48 0 0 1-72.256-62.976l4.352-4.928 479.36-479.424-274.432 5.824a46.72 46.72 0 0 1-47.68-40.832l-0.384-7.232a51.84 51.84 0 0 1 50.176-50.176l392.512-8.32h0.384a46.912 46.912 0 0 1 34.432 13.696z" p-id="24513"></path></svg>