<?xml version="1.0" encoding="UTF-8"?>
<svg width="36px" height="36px" viewBox="0 0 36 36" version="1.1" xmlns="http://www.w3.org/2000/svg" xmlns:xlink="http://www.w3.org/1999/xlink">
    <title>返回5</title>
    <g id="页面-1" stroke="none" stroke-width="1" fill="none" fill-rule="evenodd">
        <g id="Article-Details-1024" transform="translate(-24.000000, -120.000000)" fill-rule="nonzero">
            <g id="返回5" transform="translate(24.000000, 120.000000)">
                <rect id="矩形" fill="#000000" opacity="0" x="0" y="0" width="36" height="36"></rect>
                <path d="M18.0037266,2.84196094 C9.65886328,2.84196094 2.89427344,9.61196484 2.89427344,17.9638945 C2.89427344,26.3157539 9.65886328,33.0857227 18.0037266,33.0857227 C26.3493984,33.0857227 33.1139531,26.3157539 33.1139531,17.9638945 C33.1139531,9.61196484 26.3494336,2.84196094 18.0037266,2.84196094 L18.0037266,2.84196094 Z M21.2896055,24.4937461 C21.6486211,24.8511445 21.6843047,25.3934648 21.3712031,25.7058281 C21.057293,26.0181914 20.5111055,25.9816289 20.1521602,25.6250742 L13.1248828,18.6763711 C12.9213281,18.4735195 12.825,18.2125195 12.8342812,17.966918 C12.823418,17.7191016 12.9197812,17.4556758 13.1241797,17.2513477 L20.152125,10.3026445 C20.5110703,9.94524609 21.0565195,9.90949219 21.371168,10.2218555 C21.6842695,10.5341836 21.6486211,11.0765742 21.2895703,11.4339375 L14.682832,17.9638594 L21.2895703,24.4937812 L21.2896055,24.4937461 Z" id="形状" fill="#2EDE92"></path>
            </g>
        </g>
    </g>
</svg>