<?xml version="1.0" encoding="UTF-8"?>
<svg width="26px" height="24px" viewBox="0 0 26 24" version="1.1" xmlns="http://www.w3.org/2000/svg" xmlns:xlink="http://www.w3.org/1999/xlink">
    <title>形状</title>
    <defs>
        <radialGradient cx="50.0234302%" cy="49.9873%" fx="50.0234302%" fy="49.9873%" r="52.1106685%" gradientTransform="translate(0.5002, 0.4999), scale(0.9231, 1), translate(-0.5002, -0.4999)" id="radialGradient-1">
            <stop stop-color="#92C1FF" offset="0%"></stop>
            <stop stop-color="#A1DAF1" offset="0%"></stop>
            <stop stop-color="#B9FFDD" offset="0%"></stop>
            <stop stop-color="#9CF5CC" offset="17%"></stop>
            <stop stop-color="#53DEA3" offset="54%"></stop>
            <stop stop-color="#2EDE92" offset="60%"></stop>
            <stop stop-color="#3FCA82" offset="78%"></stop>
            <stop stop-color="#37BA68" offset="94%"></stop>
        </radialGradient>
    </defs>
    <g id="页面-1" stroke="none" stroke-width="1" fill="none" fill-rule="evenodd">
        <g id="首页-深色版" transform="translate(-1098, -1214)" fill="url(#radialGradient-1)" fill-rule="nonzero">
            <g id="编组-17" transform="translate(345, 1204)">
                <g id="Frame-1618872266备份" transform="translate(744, 0)">
                    <path d="M30.0534208,34 C27.6471415,34 25.6368322,32.2748285 25.1860356,30.001016 L18.8261481,30.001016 C18.3753515,32.2809246 16.3650422,34 13.9587629,34 C11.2235239,34 9,31.7749555 9,29.0378461 C9,26.3007366 11.2235239,24.0756922 13.9587629,24.0756922 C14.4948454,24.0756922 15.024836,24.1610363 15.5304592,24.3317247 L18.7469541,18.7051054 C17.680881,17.7724155 17.0412371,16.4069088 17.0412371,14.9621539 C17.0412371,12.2250445 19.264761,10 22,10 C24.735239,10 26.9587629,12.2250445 26.9587629,14.9621539 C26.9587629,16.4069088 26.3252109,17.7724155 25.2530459,18.7051054 L28.4695408,24.3317247 C28.975164,24.1610363 29.5051546,24.0756922 30.0412371,24.0756922 C32.7764761,24.0756922 35,26.3007366 35,29.0378461 C35,31.7749555 32.7764761,34 30.0412371,34 L30.0534208,34 Z M17.9611059,28.0746761 L26.0510778,28.0746761 C26.5810684,28.0746761 27.0135895,28.507493 27.0135895,29.0378461 C27.0135895,30.7142494 28.3781631,32.0797562 30.0534208,32.0797562 C31.7286785,32.0797562 33.0932521,30.7142494 33.0932521,29.0378461 C33.0932521,27.3614427 31.7286785,25.995936 30.0534208,25.995936 C29.529522,25.995936 29.0117151,26.1300483 28.5548266,26.3921768 C28.0918463,26.6543053 27.5070291,26.495809 27.2450797,26.0325121 L23.1696345,18.9062738 C22.9076851,18.4490729 23.0660731,17.8577597 23.5229616,17.5956312 C24.4611059,17.0530861 25.0459231,16.0411481 25.0459231,14.9621539 C25.0459231,13.2857506 23.6813496,11.9202438 22.0060918,11.9202438 C20.3308341,11.9202438 18.9662605,13.2857506 18.9662605,14.9621539 C18.9662605,16.0472441 19.5510778,17.0530861 20.4892221,17.5956312 C20.9461106,17.8577597 21.1044986,18.4490729 20.8425492,18.9062738 L16.767104,26.0325121 C16.5051546,26.495809 15.9203374,26.6543053 15.4573571,26.3921768 C15.0004686,26.1300483 14.4826617,25.995936 13.9587629,25.995936 C12.2835052,25.995936 10.9189316,27.3614427 10.9189316,29.0378461 C10.9189316,30.7142494 12.2835052,32.0797562 13.9587629,32.0797562 C15.6340206,32.0797562 16.9985942,30.7142494 16.9985942,29.0378461 C16.9985942,28.507493 17.4311153,28.0746761 17.9611059,28.0746761 L17.9611059,28.0746761 L17.9611059,28.0746761 Z" id="形状"></path>
                </g>
            </g>
        </g>
    </g>
</svg>