<?xml version="1.0" encoding="UTF-8"?>
<svg width="24px" height="24px" viewBox="0 0 24 24" version="1.1" xmlns="http://www.w3.org/2000/svg" xmlns:xlink="http://www.w3.org/1999/xlink">
    <title>编组 13</title>
    <defs>
        <radialGradient cx="45.6375839%" cy="37.6355188%" fx="45.6375839%" fy="37.6355188%" r="67.1399071%" id="radialGradient-1">
            <stop stop-color="#92C1FF" offset="0%"></stop>
            <stop stop-color="#A1DAF1" offset="0%"></stop>
            <stop stop-color="#B9FFDD" offset="0%"></stop>
            <stop stop-color="#9CF5CC" offset="17%"></stop>
            <stop stop-color="#53DEA3" offset="54%"></stop>
            <stop stop-color="#2EDE92" offset="60%"></stop>
            <stop stop-color="#3FCA82" offset="78%"></stop>
            <stop stop-color="#37BA68" offset="94%"></stop>
        </radialGradient>
        <radialGradient cx="73.376418%" cy="-103.751465%" fx="73.376418%" fy="-103.751465%" r="304.923798%" gradientTransform="translate(0.7338, -1.0375), scale(0.7751, 1), translate(-0.7338, 1.0375)" id="radialGradient-2">
            <stop stop-color="#92C1FF" offset="0%"></stop>
            <stop stop-color="#A1DAF1" offset="0%"></stop>
            <stop stop-color="#B9FFDD" offset="0%"></stop>
            <stop stop-color="#9CF5CC" offset="17%"></stop>
            <stop stop-color="#53DEA3" offset="54%"></stop>
            <stop stop-color="#2EDE92" offset="60%"></stop>
            <stop stop-color="#3FCA82" offset="78%"></stop>
            <stop stop-color="#37BA68" offset="94%"></stop>
        </radialGradient>
    </defs>
    <g id="页面-1" stroke="none" stroke-width="1" fill="none" fill-rule="evenodd">
        <g id="首页-深色版" transform="translate(-1345, -1214)" fill-rule="nonzero">
            <g id="编组-17" transform="translate(345, 1204)">
                <g id="编组-15" transform="translate(990, 0)">
                    <g id="编组-13" transform="translate(10, 10)">
                        <path d="M23.6716572,22.1166753 L19.5580795,18.0030976 C21.1130614,16.1011874 22.0547238,13.6726897 22.0547238,11.0273619 C22.0547238,4.94992256 17.1109964,0 11.0273619,0 C4.94372741,0 0,4.94372741 0,11.0273619 C0,17.1109964 4.94992256,22.0547238 11.0273619,22.0547238 C13.6726897,22.0547238 16.1011874,21.1192566 18.0030976,19.5580795 L22.1228704,23.6778523 L22.191017,23.7398038 C22.3954569,23.9132679 22.6494579,24 22.8972638,24 C23.1822406,24 23.4610222,23.8884874 23.6778523,23.6778523 C23.8884874,23.4672173 24,23.1946309 24,22.8972638 C24,22.5998967 23.8884874,22.3273103 23.6778523,22.1166753 L23.6716572,22.1166753 Z M11.0273619,2.20547238 C15.8905524,2.20547238 19.8492514,6.1641714 19.8492514,11.0273619 C19.8492514,15.8905524 15.8905524,19.8492514 11.0273619,19.8492514 C6.1641714,19.8492514 2.20547238,15.8905524 2.20547238,11.0273619 C2.20547238,6.1641714 6.1641714,2.20547238 11.0273619,2.20547238 Z" id="形状" fill="url(#radialGradient-1)"></path>
                        <path d="M5.30924109,14.3789365 L5.49509551,14.6577181 C6.98812597,16.8569954 9.25554982,18.0712442 11.8822922,18.0712442 L12.0371709,18.0712442 L12.0371709,15.8657718 L11.7150232,15.8657718 C9.89984512,15.8100155 8.3324729,14.9303046 7.29788332,13.3815178 C7.10583376,13.0160041 6.73412494,12.7867837 6.31905008,12.7867837 L6.31905008,12.7867837 C6.10221993,12.7867837 5.89158493,12.8487352 5.70573051,12.9726381 C5.46411977,13.1337119 5.2968508,13.387713 5.24109448,13.6726897 C5.1915333,13.9081053 5.22870418,14.1497161 5.32782654,14.3665462 L5.31543624,14.3665462 L5.30924109,14.3789365 Z" id="路径" fill="url(#radialGradient-2)"></path>
                    </g>
                </g>
            </g>
        </g>
    </g>
</svg>