<?xml version="1.0" encoding="UTF-8"?>
<svg width="22px" height="24px" viewBox="0 0 22 24" version="1.1" xmlns="http://www.w3.org/2000/svg" xmlns:xlink="http://www.w3.org/1999/xlink">
    <title>路径</title>
    <defs>
        <radialGradient cx="55.9122044%" cy="46.4344708%" fx="55.9122044%" fy="46.4344708%" r="57.6748287%" gradientTransform="translate(0.5591, 0.4643), scale(1, 0.9167), rotate(53.2657), translate(-0.5591, -0.4643)" id="radialGradient-1">
            <stop stop-color="#92C1FF" offset="0%"></stop>
            <stop stop-color="#A1DAF1" offset="0%"></stop>
            <stop stop-color="#B9FFDD" offset="0%"></stop>
            <stop stop-color="#9CF5CC" offset="17%"></stop>
            <stop stop-color="#53DEA3" offset="54%"></stop>
            <stop stop-color="#2EDE92" offset="60%"></stop>
            <stop stop-color="#3FCA82" offset="78%"></stop>
            <stop stop-color="#37BA68" offset="94%"></stop>
        </radialGradient>
    </defs>
    <g id="页面-1" stroke="none" stroke-width="1" fill="none" fill-rule="evenodd">
        <g id="首页-深色版" transform="translate(-860, -1214)" fill="url(#radialGradient-1)" fill-rule="nonzero">
            <g id="编组-17" transform="translate(345, 1204)">
                <g id="Frame-1618872266" transform="translate(504, 0)">
                    <path d="M31.7279673,10 L26.6257558,11.1364713 L26.8647396,11.2042671 C27.5944253,11.412323 28.3234503,11.6299944 29.1329093,11.8797681 L29.544717,12.0074342 C30.0223922,12.1561726 31.8149926,12.7223948 32.240645,12.8547868 L33,13.0909713 L33,21.3584241 C33,27.7176136 28.3082792,32.3353307 22.281762,33.9255947 L21.9997931,34 L21.7178521,33.9254928 C15.6938314,32.3335534 11,27.7156687 11,21.3584241 L11,13.0915216 L11.7586605,12.855003 C12.1473169,12.7338363 13.9416881,12.166488 14.4524226,12.0074421 C15.5665452,11.6604974 16.5206475,11.3752984 17.499035,11.1008888 L17.3729651,11.1364713 L12.2720327,10 L31.7279673,10 Z M21.9993605,12.1679118 L21.4004817,12.3053428 C20.2811105,12.56782 19.1932511,12.8493289 18.095403,13.1572438 C17.1394242,13.4253685 16.2045192,13.704829 15.1088463,14.0460284 C14.7807579,14.1481971 13.9079949,14.4236008 13.2289354,14.6376362 L13.1744186,14.6540608 L13.1744186,21.3584241 C13.1744186,26.4582856 16.8870178,30.2630492 21.8231065,31.7315179 L22,31.7822625 L22.1774439,31.7315466 C27.0392284,30.2870398 30.7111251,26.5768094 30.8229558,21.5929706 L30.8255814,21.3584241 L30.8255814,14.6546897 L30.6875904,14.6118209 C30.0677193,14.4166727 29.3228167,14.181851 28.9734331,14.0725958 L28.888344,14.0460363 C27.7886224,13.7036052 26.8566435,13.4248975 25.9027599,13.1571964 C24.5303444,12.7720371 23.1748586,12.4285543 21.753433,12.1119382 L21.9993605,12.1679118 Z" id="路径"></path>
                </g>
            </g>
        </g>
    </g>
</svg>