<?xml version="1.0" standalone="no"?><!DOCTYPE svg PUBLIC "-//W3C//DTD SVG 1.1//EN" "http://www.w3.org/Graphics/SVG/1.1/DTD/svg11.dtd"><svg t="1730450601718" class="icon" viewBox="0 0 1030 1024" version="1.1" xmlns="http://www.w3.org/2000/svg" p-id="8301" xmlns:xlink="http://www.w3.org/1999/xlink" width="201.171875" height="200"><path d="M665.6 128c32 0 64 6.4 96 19.2 44.8 12.8 89.6 32 128 64 6.4 6.4 12.8 12.8 19.2 25.6 12.8 25.6 25.6 51.2 38.4 83.2 6.4 19.2 19.2 44.8 25.6 64l19.2 57.6c6.4 19.2 12.8 32 12.8 51.2 6.4 25.6 6.4 44.8 12.8 70.4 6.4 19.2 6.4 44.8 6.4 64v64c0 12.8-6.4 25.6-12.8 38.4-25.6 32-57.6 57.6-96 76.8-25.6 12.8-57.6 19.2-89.6 25.6H774.4c-6.4 0-6.4 0-12.8-6.4-12.8-19.2-25.6-32-44.8-51.2-6.4-6.4-6.4-6.4 0-12.8 19.2-6.4 32-12.8 51.2-19.2 32-19.2 64-38.4 89.6-64 0 0 6.4-6.4 6.4-12.8s-6.4 0-12.8 6.4c-44.8 25.6-96 44.8-147.2 64-12.8 6.4-25.6 6.4-38.4 12.8-25.6 6.4-44.8 12.8-70.4 12.8-19.2 0-44.8 6.4-64 6.4-25.6 0-51.2 0-76.8-6.4-19.2 0-38.4-6.4-57.6-6.4-6.4 0-19.2-6.4-25.6-6.4-44.8-12.8-83.2-25.6-128-44.8-19.2-6.4-38.4-19.2-51.2-25.6h-6.4-6.4v6.4c12.8 0 19.2 6.4 32 19.2 25.6 25.6 57.6 38.4 89.6 51.2 6.4 0 12.8 6.4 19.2 6.4 6.4 0 6.4 6.4 0 12.8-12.8 12.8-19.2 25.6-32 32l-6.4 6.4v6.4c-6.4 12.8-12.8 12.8-25.6 12.8s-25.6 0-38.4-6.4l-76.8-19.2c-38.4-12.8-76.8-38.4-108.8-64l-32-32V704c0-25.6 0-51.2 6.4-83.2 0-25.6 6.4-44.8 6.4-70.4 0-12.8 6.4-25.6 6.4-38.4 12.8-19.2 19.2-44.8 25.6-64 6.4-32 12.8-57.6 25.6-83.2 12.8-44.8 32-89.6 57.6-128 6.4-12.8 19.2-25.6 32-32l76.8-38.4c19.2-12.8 44.8-19.2 70.4-19.2 12.8-12.8 38.4-19.2 57.6-19.2h6.4c6.4 0 6.4 0 12.8 6.4 0 6.4-6.4 6.4-6.4 6.4-32 6.4-57.6 12.8-83.2 25.6-38.4 12.8-76.8 32-108.8 57.6-6.4 0-12.8 6.4-19.2 12.8v6.4h6.4c6.4 0 12.8-6.4 19.2-6.4 32-19.2 70.4-32 108.8-44.8l76.8-19.2c19.2-6.4 38.4-6.4 57.6-6.4 32-6.4 64-6.4 96-6.4 25.6 0 51.2 0 76.8 6.4 25.6 6.4 51.2 6.4 76.8 12.8 32 6.4 57.6 12.8 83.2 25.6s51.2 19.2 76.8 32h6.4c-12.8-12.8-32-25.6-44.8-32-32-19.2-64-32-102.4-51.2-19.2-6.4-32-12.8-51.2-19.2-6.4 0-12.8 0-6.4-6.4h19.2z m-256 339.2C390.4 448 358.4 441.6 332.8 448c-32 6.4-51.2 25.6-64 51.2-12.8 25.6-12.8 51.2 0 76.8 19.2 38.4 57.6 57.6 89.6 57.6 12.8 0 32-6.4 38.4-12.8 32-19.2 44.8-44.8 44.8-83.2v-19.2c-6.4-19.2-12.8-38.4-32-51.2z m332.8 6.4c-25.6-32-70.4-38.4-108.8-19.2-32 19.2-44.8 44.8-51.2 76.8 0 25.6 6.4 44.8 19.2 64 32 38.4 83.2 51.2 128 19.2 25.6-19.2 38.4-44.8 38.4-76.8 0-25.6-6.4-38.4-25.6-64z" p-id="8302"></path></svg>