<?xml version="1.0" encoding="UTF-8"?>
<svg width="27px" height="24px" viewBox="0 0 27 24" version="1.1" xmlns="http://www.w3.org/2000/svg" xmlns:xlink="http://www.w3.org/1999/xlink">
    <title>编组 14</title>
    <defs>
        <radialGradient cx="54.0853831%" cy="-35.7055215%" fx="54.0853831%" fy="-35.7055215%" r="215.183762%" gradientTransform="translate(0.5409, -0.3571), scale(0.9546, 1), translate(-0.5409, 0.3571)" id="radialGradient-1">
            <stop stop-color="#92C1FF" offset="0%"></stop>
            <stop stop-color="#A1DAF1" offset="0%"></stop>
            <stop stop-color="#B9FFDD" offset="0%"></stop>
            <stop stop-color="#9CF5CC" offset="17%"></stop>
            <stop stop-color="#53DEA3" offset="54%"></stop>
            <stop stop-color="#2EDE92" offset="60%"></stop>
            <stop stop-color="#3FCA82" offset="78%"></stop>
            <stop stop-color="#37BA68" offset="94%"></stop>
        </radialGradient>
        <radialGradient cx="52.0677455%" cy="-2.33952428%" fx="52.0677455%" fy="-2.33952428%" r="91.4303115%" gradientTransform="translate(0.5207, -0.0234), scale(0.8889, 1), translate(-0.5207, 0.0234)" id="radialGradient-2">
            <stop stop-color="#92C1FF" offset="0%"></stop>
            <stop stop-color="#A1DAF1" offset="0%"></stop>
            <stop stop-color="#B9FFDD" offset="0%"></stop>
            <stop stop-color="#9CF5CC" offset="17%"></stop>
            <stop stop-color="#53DEA3" offset="54%"></stop>
            <stop stop-color="#2EDE92" offset="60%"></stop>
            <stop stop-color="#3FCA82" offset="78%"></stop>
            <stop stop-color="#37BA68" offset="94%"></stop>
        </radialGradient>
    </defs>
    <g id="页面-1" stroke="none" stroke-width="1" fill="none" fill-rule="evenodd">
        <g id="首页-深色版" transform="translate(-585, -1214)" fill-rule="nonzero">
            <g id="编组-17" transform="translate(345, 1204)">
                <g id="编组-7" transform="translate(232, 0)">
                    <g id="编组-14" transform="translate(8, 10)">
                        <path d="M18.1926222,12.3698925 L15.455194,11.9632454 L14.2838002,9.59843597 C14.1459892,9.31065494 13.8390465,9.13548387 13.4882547,9.13548387 L13.4882547,9.13548387 C13.137463,9.13548387 12.8305203,9.31065494 12.6927092,9.59843597 L11.5213155,11.9632454 L8.90917,12.344868 C8.67113276,12.3761486 8.46441622,12.5012708 8.32034105,12.6952102 C8.17626588,12.8828935 8.11988864,13.1206256 8.15120933,13.3521017 C8.17626588,13.5460411 8.27022795,13.7274682 8.40803898,13.8588465 L10.2998086,15.6981427 L9.85505481,18.2944282 C9.77362102,18.7761486 10.0993562,19.2391007 10.5816948,19.3204301 C10.7758831,19.3517107 10.9763355,19.3204301 11.1454672,19.2328446 L13.4819906,18.0066471 L15.818514,19.2328446 C15.9500609,19.3016618 16.0941361,19.3329423 16.2319471,19.3329423 C16.5514181,19.3329423 16.864625,19.1577713 17.0212285,18.857478 C17.1089264,18.688563 17.1465112,18.4883675 17.1089264,18.2944282 L16.6641726,15.6981427 L18.5559422,13.8588465 C18.725074,13.6899316 18.819036,13.4709677 18.8253002,13.2332356 C18.8253002,12.9955034 18.7376022,12.7702835 18.5747346,12.6013685 C18.4682443,12.4950147 18.3366974,12.4136852 18.1926222,12.3698925 L18.1926222,12.3698925 Z M15.091874,14.7472141 C14.8788933,14.9536657 14.7849313,15.2477028 14.8350444,15.5354839 L15.0542892,16.8179863 L13.9016878,16.2111437 C13.6448582,16.0735093 13.3316513,16.0735093 13.0748216,16.2111437 L11.9222203,16.8179863 L12.1414651,15.5354839 C12.1915782,15.2477028 12.0976161,14.9536657 11.8846355,14.7472141 L10.9512789,13.8400782 L12.2416913,13.6523949 C12.5298417,13.6086022 12.7804072,13.427175 12.9119541,13.1644184 L13.4882547,11.9945259 L14.0645554,13.1644184 C14.1961023,13.427175 14.4466678,13.6086022 14.7348182,13.6523949 L16.0252306,13.8400782 L15.091874,14.7472141 L15.091874,14.7472141 Z" id="形状" fill="url(#radialGradient-1)"></path>
                        <path d="M25.4652862,5.44437928 L25.2084566,5.70087977 L25.2084566,5.70087977 L21.8070298,9.09794721 C21.4750305,8.55366569 21.0866539,8.04692082 20.6544284,7.57771261 L26.7243779,1.51554252 C27.0689055,1.16520039 27.0689055,0.602150538 26.7243779,0.258064516 C26.3798504,-0.0860215054 25.816078,-0.0860215054 25.4715504,0.258064516 L19.3326953,6.38905181 C17.6225857,5.11280547 15.6117975,4.44340176 13.4945189,4.44340176 C11.3772403,4.44340176 9.36018792,5.11906158 7.65634244,6.38905181 L1.51748738,0.258064516 C1.17295981,-0.0860215054 0.602923264,-0.0860215054 0.258395685,0.258064516 C-0.0861318949,0.602150538 -0.0861318949,1.1714565 0.258395685,1.51554252 L6.32834522,7.57771261 C5.89611971,8.04692082 5.50774317,8.55366569 5.17574387,9.09794721 L1.51748738,5.44437928 C1.17922394,5.10654936 0.596659127,5.10654936 0.258395685,5.44437928 C-0.0861318949,5.7884653 -0.0861318949,6.35777126 0.258395685,6.70185728 L4.34261354,10.7808407 C3.9229163,11.8819159 3.70993562,13.0392962 3.70993562,14.2217009 C3.70993562,19.6144673 8.10109622,24 13.500783,24 C18.9004698,24 23.2916304,19.6144673 23.2916304,14.2217009 C23.2916304,13.0392962 23.0786497,11.8819159 22.6589525,10.7808407 L26.7431703,6.70185728 C26.9123021,6.53294233 27,6.30772239 27,6.06999022 C27,5.83225806 26.9060379,5.60703812 26.7369062,5.44437928 C26.3923786,5.10029326 25.8286062,5.10029326 25.4840786,5.44437928 L25.4652862,5.44437928 Z M13.4882547,22.2232649 C9.07203758,22.2232649 5.47642248,18.6322581 5.47642248,14.2217009 C5.47642248,9.8111437 9.07203758,6.22013685 13.4882547,6.22013685 C17.9044719,6.22013685 21.500087,9.8111437 21.500087,14.2217009 C21.500087,18.6322581 17.9044719,22.2232649 13.4882547,22.2232649 Z" id="形状" fill="url(#radialGradient-2)"></path>
                    </g>
                </g>
            </g>
        </g>
    </g>
</svg>