<?xml version="1.0" encoding="UTF-8"?>
<svg width="30px" height="24px" viewBox="0 0 30 24" version="1.1" xmlns="http://www.w3.org/2000/svg" xmlns:xlink="http://www.w3.org/1999/xlink">
    <title>形状</title>
    <defs>
        <radialGradient cx="49.9937668%" cy="50.0323457%" fx="49.9937668%" fy="50.0323457%" r="79.5960969%" gradientTransform="translate(0.4999, 0.5003), scale(0.8, 1), translate(-0.4999, -0.5003)" id="radialGradient-1">
            <stop stop-color="#92C1FF" offset="0%"></stop>
            <stop stop-color="#A1DAF1" offset="0%"></stop>
            <stop stop-color="#B9FFDD" offset="0%"></stop>
            <stop stop-color="#9CF5CC" offset="17%"></stop>
            <stop stop-color="#53DEA3" offset="54%"></stop>
            <stop stop-color="#2EDE92" offset="60%"></stop>
            <stop stop-color="#3FCA82" offset="78%"></stop>
            <stop stop-color="#37BA68" offset="94%"></stop>
        </radialGradient>
    </defs>
    <g id="页面-1" stroke="none" stroke-width="1" fill-rule="evenodd">
        <g id="首页-深色版" transform="translate(-352, -1214)" fill-rule="nonzero">
            <g id="Frame-1618872266" transform="translate(345, 1204)">
                <path d="M31.8912314,21.8897658 C32.4936362,21.8897658 32.9842545,22.3741752 33.0028856,22.9703713 L33.0028856,22.9952128 C33.0028856,22.9952128 33.0028856,28.6031828 33.0028856,28.6031828 C33.0028856,31.838789 28.0283883,34 22.0416025,34 C16.0548168,34 11.1796852,31.8760512 11.0803195,28.7025488 L11.0803195,28.6031828 C11.0803195,28.6031828 11.0803195,22.9952128 11.0803195,22.9952128 C11.0803195,22.3803856 11.5771482,21.8835554 12.1919737,21.8835554 C12.8067992,21.8835554 13.2849968,22.3679648 13.3036279,22.964161 L13.3036279,22.9890025 C13.3036279,22.9890025 13.3036279,28.5969724 13.3036279,28.5969724 C13.3036279,29.2055893 14.0488709,29.9694656 15.5207259,30.6153448 C17.2099435,31.3481692 19.538828,31.7766852 22.0478129,31.7766852 C24.5567978,31.7766852 26.8856823,31.3481692 28.5748998,30.6153448 C30.0343341,29.9818864 30.7795772,29.2242205 30.7919979,28.6218139 L30.7919979,28.6031828 C30.7919979,28.6031828 30.7919979,22.9952128 30.7919979,22.9952128 C30.7919979,22.3803856 31.2888266,21.8835554 31.9036521,21.8835554 L31.9036521,21.8835554 L31.8912314,21.8897658 Z M23.2774639,10.3012033 L36.5117382,16.5861043 C36.940253,16.7910467 37.1203534,17.3002976 36.9154115,17.7226032 C36.8346769,17.8964937 36.6918386,18.0393324 36.5117382,18.1262777 L36.213641,18.2691163 L36.1887996,23.9516108 C36.1887996,24.4235994 35.8037573,24.8024324 35.3317701,24.8024324 C34.8659932,24.8024324 34.4933717,24.4298098 34.4809509,23.9702419 L34.4809509,23.9454004 C34.4809509,23.9454004 34.499582,19.088886 34.499582,19.088886 L23.3333571,24.4484409 C22.5198002,24.8396947 21.5696153,24.8396947 20.7560583,24.4484409 L7.48452183,18.1138569 C7.06221744,17.9089145 6.88211704,17.3996636 7.08084852,16.977358 C7.16779354,16.8034675 7.31063179,16.6606288 7.48452183,16.5736835 L20.7125858,10.2887825 C21.5261428,9.90373916 22.4639069,9.90373916 23.2774639,10.2887825 L23.2774639,10.3012033 Z M21.6938225,12.2947341 L21.668981,12.3071549 L11.0306366,17.3624013 L21.7124535,22.4611205 C21.911185,22.5542761 22.1471786,22.5604865 22.3521205,22.4735412 L22.3769619,22.4611205 L32.9780441,17.3686117 L22.327279,12.3071549 C22.1285476,12.2139992 21.8987643,12.2077888 21.6938225,12.2947341 Z" id="形状"></path>
            </g>
        </g>
    </g>
</svg>