<?xml version="1.0" standalone="no"?><!DOCTYPE svg PUBLIC "-//W3C//DTD SVG 1.1//EN" "http://www.w3.org/Graphics/SVG/1.1/DTD/svg11.dtd"><svg t="1683863604432" class="icon" viewBox="0 0 1024 1024" version="1.1" xmlns="http://www.w3.org/2000/svg" p-id="8311" xmlns:xlink="http://www.w3.org/1999/xlink" width="200" height="200"><path d="M407.488 66.176c79.616 0 164.224-4.928 248.896 0 29.824 0 64.64 0 99.52 9.92 34.816 9.92 69.632 19.84 99.584 44.672 39.808 29.76 64.64 64.448 79.616 114.048 14.912 44.608 19.904 84.288 19.904 128.896 4.992 99.2 4.992 198.4 4.992 297.536 0 34.752 0 69.44-9.984 104.128a259.072 259.072 0 0 1-69.632 123.968c-19.968 24.768-49.792 39.68-84.672 49.6a277.312 277.312 0 0 1-84.608 14.848c-119.488 9.92-233.984 4.992-353.408 4.992-9.984-4.992-24.896-4.992-34.88-4.992-14.912 0-29.824 0-39.808-4.928-29.888-4.928-64.64-14.912-89.6-29.696a155.2 155.2 0 0 1-54.72-44.736 216.448 216.448 0 0 1-49.792-74.368 692.8 692.8 0 0 1-19.904-99.2C64 651.392 64 596.864 64 547.2V304.192c4.992-69.376 34.816-133.888 89.6-178.496a214.4 214.4 0 0 1 114.496-49.6c44.8-9.92 94.592-9.92 139.392-9.92z m184.128 74.432c-84.608 0-174.208 0-258.816 4.928-24.896 4.992-54.784 4.992-79.68 14.912a195.072 195.072 0 0 0-89.6 89.216c-9.984 19.84-9.984 44.608-14.912 64.448-4.992 74.432-4.992 148.8-4.992 218.24v84.288c0 44.608 0 84.288 4.992 123.968 4.928 29.76 14.976 54.592 34.88 79.36 34.816 34.688 69.632 49.6 119.424 54.464 29.888 4.992 59.776 4.992 94.592 4.992h59.2a4551.488 4551.488 0 0 0 229.504-4.992c24.96 0 44.8 0 64.64-4.864 34.944-9.984 64.768-24.832 89.6-54.592 15.04-19.84 24.96-39.68 29.952-64.448 9.984-24.832 9.984-54.528 9.984-84.352 0-104.128 0-203.264-5.056-307.392 0-29.76 0-54.592-4.928-79.36-14.912-59.52-44.8-104.128-109.504-123.968-24.896-4.928-54.784-9.92-79.68-9.92-29.888-4.928-59.712-4.928-89.6-4.928zM472.128 284.416c114.56-19.84 224 54.528 258.88 158.656 9.92 29.76 14.912 59.52 9.92 94.208-4.928 34.752-14.912 69.44-34.816 99.2a397.12 397.12 0 0 1-64.704 64.448c-24.896 14.848-54.784 29.76-84.608 34.688-44.8 9.984-94.592 4.992-139.392-14.848a177.408 177.408 0 0 1-79.68-54.592 251.2 251.2 0 0 1-44.8-79.36c-4.928-24.768-9.92-49.536-9.92-74.304 4.992-14.912 0-24.832 4.992-34.752 0-14.848 4.928-34.688 9.92-49.6 29.888-79.36 89.6-128.896 174.208-143.744z m189.184 208.256C646.4 403.392 556.8 343.872 472.128 368.64a149.312 149.312 0 0 0-109.44 153.664c4.928 29.76 9.92 54.592 29.824 79.36 44.8 64.448 134.4 79.36 199.104 39.68l8.064-8 16.832-16.768c9.984-9.92 14.912-14.912 19.904-24.832 19.904-29.76 29.888-64.448 24.896-99.2z m89.6-272.704c29.888 0 54.784 24.768 54.784 54.528a55.168 55.168 0 0 1-54.784 54.528 55.104 55.104 0 0 1-54.784-54.528c0-29.76 24.96-54.528 54.784-54.528z" p-id="8312"></path></svg>