<?xml version="1.0" standalone="no"?><!DOCTYPE svg PUBLIC "-//W3C//DTD SVG 1.1//EN" "http://www.w3.org/Graphics/SVG/1.1/DTD/svg11.dtd"><svg t="1730450630613" class="icon" viewBox="0 0 1024 1024" version="1.1" xmlns="http://www.w3.org/2000/svg" p-id="8772" xmlns:xlink="http://www.w3.org/1999/xlink" width="200" height="200"><path d="M267.456 334.656h-192v561.28h192zM738.88 321.408c-102.016 0-147.648 54.592-173.12 92.8V334.592H373.696c0.64 14.144 1.024 61.12 1.088 122.24v109.76c-0.192 122.752-0.768 257.6-1.024 308.48v17.408L373.632 896H565.76V582.4c0-16.768 1.28-33.472 6.4-45.44 13.888-33.6 45.44-68.288 98.56-68.288 69.44 0 97.28 51.456 97.28 126.912V896h192V574.08c0-172.416-94.72-252.672-221.12-252.672zM172.672 64C107.008 64 64 105.92 64 160.96c0 53.888 41.728 97.024 106.176 97.024h1.28c66.944 0 108.672-43.136 108.672-97.024C278.848 105.92 238.4 64 172.672 64z" p-id="8773"></path></svg>