<?xml version="1.0" standalone="no"?><!DOCTYPE svg PUBLIC "-//W3C//DTD SVG 1.1//EN" "http://www.w3.org/Graphics/SVG/1.1/DTD/svg11.dtd"><svg t="1730450619581" class="icon" viewBox="0 0 1024 1024" version="1.1" xmlns="http://www.w3.org/2000/svg" p-id="8615" xmlns:xlink="http://www.w3.org/1999/xlink" width="200" height="200"><path d="M288.832 256a288.384 288.384 0 0 1 288.768 288c0 159.04-129.28 288-288.768 288A288.448 288.448 0 0 1 0 544C0 384.96 129.28 256 288.832 256z m461.184 16.896c79.744 0 144.384 121.344 144.384 271.104s-64.64 271.168-144.384 271.168c-79.744 0-144.384-121.472-144.384-271.168 0-149.76 64.64-271.104 144.384-271.104z m223.168 28.16c28.096 0 50.816 108.8 50.816 242.944s-22.72 242.88-50.816 242.88c-28.032 0-50.752-108.736-50.752-242.88s22.72-242.88 50.752-242.88z" p-id="8616"></path></svg>