<?xml version="1.0" standalone="no"?><!DOCTYPE svg PUBLIC "-//W3C//DTD SVG 1.1//EN" "http://www.w3.org/Graphics/SVG/1.1/DTD/svg11.dtd"><svg t="1730450596294" class="icon" viewBox="0 0 1024 1024" version="1.1" xmlns="http://www.w3.org/2000/svg" p-id="8144" xmlns:xlink="http://www.w3.org/1999/xlink" width="200" height="200"><path d="M83.2 416L921.6 64c6.4-6.4 19.2 0 25.6 6.4 12.8 6.4 12.8 19.2 12.8 25.6l-211.2 844.8c0 6.4-6.4 12.8-19.2 19.2s-19.2 0-25.6-6.4l-185.6-153.6c-12.8-6.4-25.6-6.4-38.4 0L396.8 896c-6.4 6.4-19.2 12.8-25.6 6.4-12.8-6.4-19.2-12.8-19.2-25.6v-198.4c0-6.4 0-12.8 6.4-19.2l377.6-384-448 339.2c-6.4 12.8-19.2 12.8-32 0L70.4 460.8C64 454.4 64 448 64 441.6c0-12.8 6.4-19.2 19.2-25.6z" p-id="8145"></path></svg>