<?xml version="1.0" standalone="no"?><!DOCTYPE svg PUBLIC "-//W3C//DTD SVG 1.1//EN" "http://www.w3.org/Graphics/SVG/1.1/DTD/svg11.dtd"><svg t="1683863595330" class="icon" viewBox="0 0 1024 1024" version="1.1" xmlns="http://www.w3.org/2000/svg" p-id="8175" xmlns:xlink="http://www.w3.org/1999/xlink" width="200" height="200"><path d="M679.808 503.168l-275.392 150.08V344.256l124.8 70.656 150.592 88.32z m331.264-207.424s-8.576-75.072-43.072-110.336c-38.656-44.16-81.664-44.16-103.168-44.16C727.04 128 512 128 512 128s-215.104 0-357.12 8.832c-21.504 4.416-60.288 4.416-103.296 44.16-30.08 30.848-43.008 110.336-43.008 110.336S0 379.52 0 467.84v88.32c0 88.256 8.576 176.512 8.576 176.512s8.64 75.072 43.008 110.336c38.784 44.16 90.368 44.16 111.936 44.16C245.12 896 512 896 512 896s215.104 0 357.12-8.832c21.44-4.416 60.224-4.416 103.232-44.16 30.08-30.848 43.072-110.336 43.072-110.336S1024 644.48 1024 556.16V476.672c-4.352-92.672-12.928-180.928-12.928-180.928z" p-id="8176"></path></svg>